<?xml version="1.0" encoding="UTF-8" standalone="no"?>
<!-- Created with Inkscape (http://www.inkscape.org/) -->

<svg
   xmlns:dc="http://purl.org/dc/elements/1.1/"
   xmlns:cc="http://creativecommons.org/ns#"
   xmlns:rdf="http://www.w3.org/1999/02/22-rdf-syntax-ns#"
   xmlns:svg="http://www.w3.org/2000/svg"
   xmlns="http://www.w3.org/2000/svg"
   version="1.1"
   width="765"
   height="990"
   id="svg3004"
   xml:space="preserve"><metadata
     id="metadata3010"><rdf:RDF><cc:Work
         rdf:about=""><dc:format>image/svg+xml</dc:format><dc:type
           rdf:resource="http://purl.org/dc/dcmitype/StillImage" /><dc:title></dc:title></cc:Work></rdf:RDF></metadata><defs
     id="defs3008"><clipPath
       id="clipPath3018"><path
         d="M 0,792 612,792 612,0 0,0 0,792 z"
         id="path3020" /></clipPath></defs><g
     transform="matrix(1.25,0,0,-1.25,0,990)"
     id="g3012"><g
       id="g3014"
       style="fill:#008000"><g
         clip-path="url(#clipPath3018)"
         id="g3016"
         style="fill:#008000"><g
           transform="translate(36.7886,416.6313)"
           id="g3022"
           style="fill:#008000"><path
             d="M 0,0 C 13.8,-2.187 27.816,-4.159 41.508,-6.453 41.688,-10.1 41.31,-13.7 41.16,-17.267 40,-44.778 43.587,-70.141 49.531,-91.389 c 13.677,-48.892 39.974,-86.68 73.425,-115.981 16.85,-14.759 36.329,-27.325 57.555,-36.974 21.522,-9.783 46.389,-17.581 74.646,-20.056 31.08,-2.724 60.383,0.287 85.46,6.802 49.5,12.858 86.792,39.279 116.852,72.378 15.077,16.6 27.602,35.453 37.673,57.032 10.109,21.66 17.707,45.894 20.753,73.947 3.225,29.697 0.746,60.472 -5.755,85.808 -6.413,24.998 -16.408,46.977 -28.253,66.275 -23.556,38.374 -57.443,69.283 -99.762,89.646 -31.326,15.074 -70.136,25.295 -118.248,23.021 -14.481,-0.684 -27.848,-3.395 -40.984,-6.278 -5.02,12.015 -9.407,24.662 -13.954,37.148 31.615,9.089 75.645,11.357 113.017,5.756 46.634,-6.99 84.091,-24.067 116.154,-45.87 21.631,-14.707 39.929,-31.821 56.508,-51.449 16.352,-19.359 31.035,-41.679 41.683,-66.275 10.797,-24.936 19.474,-53.066 22.673,-85.459 3.352,-33.931 0.359,-69.118 -7.151,-98.016 -14.834,-57.107 -43.264,-100.083 -80.227,-135.69 -8.965,-8.636 -19.053,-16.854 -29.649,-24.417 -31.193,-22.262 -69.267,-39.93 -114.41,-47.614 -31.609,-5.378 -67.258,-5.467 -98.541,0.351 -30.097,5.595 -56.742,15.599 -80.226,27.729 -46.849,24.199 -83.707,60.654 -110.924,104.993 -13.464,21.937 -24.53,48.204 -31.393,76.567 C -0.479,-69.369 -4.002,-35.194 0,0"
             id="path3024"
             style="fill:#008000;fill-opacity:1;fill-rule:evenodd;stroke:none" /></g><g
           transform="translate(219.1255,625.9668)"
           id="g3026"
           style="fill:#008000"><path
             d="m 0,0 c 1.401,-3.656 2.985,-7.13 4.36,-10.813 1.275,0.12 1.901,0.889 2.616,1.569 C 6.462,-5.224 4.845,-2.307 3.139,0.522 1.765,0.676 1.087,0.134 0,0 m -5.931,14.824 c 0.836,-3.176 2.368,-5.656 3.314,-8.72 1.074,0.323 2.056,0.735 2.617,1.57 -0.375,3.288 -1.399,5.925 -3.314,7.674 -1.189,0.141 -1.734,-0.359 -2.617,-0.524 M 6.278,6.627 c 5.479,1.36 7.987,-2.793 9.767,-7.15 1.321,-3.233 3.916,-8.531 1.396,-11.861 -1.747,-2.307 -6.8,-4.008 -9.767,-5.232 C 3.845,-19.195 0.35,-20.658 -3.14,-21.801 -8.281,-8.63 -13.834,4.13 -19.011,17.266 c 5.357,1.501 10.893,5.808 17.266,6.453 3.308,0.335 5.966,-1.093 7.5,-2.965 2.87,-3.499 6.209,-11.64 0.523,-14.127"
             id="path3028"
             style="fill:#008000;fill-opacity:1;fill-rule:evenodd;stroke:none" /></g><g
           transform="translate(186.5107,622.4785)"
           id="g3030"
           style="fill:#008000"><path
             d="m 0,0 c -0.378,0.549 -0.998,1.582 -1.22,1.221 2.246,-5.137 4.436,-10.33 6.627,-15.523 1.217,0.469 2.05,1.323 3.314,1.744 C 5.92,-8.618 2.699,-3.924 0,0 m 26.86,-19.359 c -2.971,-2.146 -6.497,-3.736 -9.593,-5.756 -1.779,1.767 -2.795,4.298 -4.535,6.105 -1.244,-0.442 -2.124,-1.248 -3.314,-1.745 1.027,-2.287 2.14,-4.487 3.14,-6.802 C 9.459,-29.69 6.127,-31.591 2.617,-33.312 -2.632,-20.131 -8.135,-7.206 -13.429,5.93 -9.24,9.007 -4.174,11.208 0.174,14.127 9.178,3.074 17.867,-8.295 26.86,-19.359"
             id="path3032"
             style="fill:#008000;fill-opacity:1;fill-rule:evenodd;stroke:none" /></g><g
           transform="translate(177.7905,591.6084)"
           id="g3034"
           style="fill:#008000"><path
             d="m 0,0 c 2.162,0.979 3.577,2.702 5.755,3.663 1.407,-2.433 3.113,-4.562 4.71,-6.803 -4.79,-3.524 -9.593,-7.034 -14.651,-10.29 -7.916,11.734 -16.35,22.95 -24.243,34.707 3.049,2.01 6.037,4.079 8.896,6.28 C -12.912,18.481 -6.526,9.171 0,0"
             id="path3036"
             style="fill:#008000;fill-opacity:1;fill-rule:evenodd;stroke:none" /></g><g
           transform="translate(139.9438,586.7246)"
           id="g3038"
           style="fill:#008000"><path
             d="m 0,0 c 3.298,-3.738 6.656,-7.262 9.768,-10.813 1.202,-1.373 3.597,-5.193 5.406,-4.883 3.477,0.593 -1.588,5.591 -2.965,7.15 C 8.834,-4.723 5.684,-0.995 2.617,2.442 1.422,3.78 -1.515,7.765 -3.138,7.325 -6.498,6.417 -1.099,1.247 0,0 m -1.22,16.046 c 5.955,0.838 8.449,-2.601 11.337,-5.755 3.759,-4.107 6.629,-7.09 10.464,-11.687 2.257,-2.704 5.02,-4.94 5.057,-9.941 0.061,-7.919 -10.625,-15.986 -18.312,-12.208 -1.951,0.959 -4.094,3.228 -5.756,5.058 -3.309,3.644 -6.899,7.764 -10.116,11.511 -3.114,3.629 -6.548,8.465 -4.184,14.127 1.475,3.537 6.173,8.144 11.51,8.895"
             id="path3040"
             style="fill:#008000;fill-opacity:1;fill-rule:evenodd;stroke:none" /></g><g
           transform="translate(117.4458,566.8428)"
           id="g3042"
           style="fill:#008000"><path
             d="M 0,0 C -1.814,1.674 -3.894,3.406 -5.755,1.046 -3.75,-1.366 -1.211,-3.247 1.22,-5.232 3.643,-3.146 1.887,-1.742 0,0 m 29.475,-12.034 c -2.059,-2.766 -4.585,-5.066 -6.628,-7.849 -2.961,2.389 -6.931,6.021 -10.464,9.07 -1.902,1.641 -4.345,4.112 -6.104,1.045 4.71,-4.241 9.508,-8.396 14.301,-12.556 -2.545,-2.688 -4.686,-5.779 -7.499,-8.197 -10.508,9.258 -21.088,18.444 -31.568,27.73 3.47,3.392 8.3,11.213 12.906,13.953 4.138,2.461 9.045,-0.329 11.86,-2.79 2.392,-2.094 6.493,-6.453 2.79,-10.291 5.568,4.38 9.537,-0.794 13.605,-4.359 2.434,-2.136 4.857,-4.061 6.801,-5.756"
             id="path3044"
             style="fill:#008000;fill-opacity:1;fill-rule:evenodd;stroke:none" /></g><g
           transform="translate(100.5283,552.541)"
           id="g3046"
           style="fill:#008000"><path
             d="m 0,0 c -1.032,-1.875 -2.349,-3.464 -3.487,-5.232 9.026,-6.612 18.42,-12.856 27.73,-19.185 -1.827,-3.29 -4.203,-6.028 -6.105,-9.244 -9.388,6.308 -18.673,12.721 -27.905,19.185 -1.286,-1.736 -2.584,-3.462 -3.662,-5.406 -1.696,1.07 -3.416,2.287 -5.407,3.662 -0.31,0.214 -1.708,1 -1.744,1.221 -0.096,0.6 2.637,3.888 3.314,4.884 3.416,5.023 7.483,10.571 10.289,14.999 C -4.652,3.255 -2.217,1.737 0,0"
             id="path3048"
             style="fill:#008000;fill-opacity:1;fill-rule:evenodd;stroke:none" /></g><g
           transform="translate(91.9829,522.0195)"
           id="g3050"
           style="fill:#008000"><path
             d="m 0,0 c -1.544,-3.397 -3.373,-6.51 -5.059,-9.767 -2.4,1.039 -5.024,2.709 -7.673,4.012 -1.446,0.711 -4.294,1.68 -4.186,-1.047 0.076,-1.904 3.523,-3.107 5.581,-4.185 4.537,-2.379 8.6,-4.313 12.906,-6.628 1.786,-0.96 4.687,-3.385 6.627,-3.139 1.02,0.129 1.549,1.189 1.571,1.744 0.068,1.722 -2.56,2.797 -3.837,3.488 -1.897,1.025 -3.313,1.584 -4.884,2.441 1.588,3.353 3.401,6.482 5.057,9.768 3.898,-2.337 8.085,-3.342 10.291,-6.803 3.48,-5.458 0.372,-13.795 -3.837,-17.789 -1.774,-1.684 -4.351,-3.198 -8.022,-2.79 -4.759,0.528 -9.014,3.7 -13.953,6.278 -4.671,2.438 -10.095,4.45 -12.907,7.325 -6.607,6.76 -0.127,23.403 10.814,22.15 C -7.002,4.542 -3.649,1.476 0,0"
             id="path3052"
             style="fill:#008000;fill-opacity:1;fill-rule:evenodd;stroke:none" /></g><g
           transform="translate(67.7397,495.8579)"
           id="g3054"
           style="fill:#008000"><path
             d="m 0,0 c -0.752,-2.387 -1.667,-4.611 -2.616,-6.801 2.281,-1.15 4.928,-1.932 7.325,-2.965 1.078,1.887 1.653,4.277 2.616,6.278 2.643,-0.787 4.939,-1.921 7.5,-2.79 -0.705,-2.201 -1.528,-4.286 -2.441,-6.279 2.6,-1.41 5.722,-2.298 8.545,-3.488 1.133,2.356 2.029,4.947 2.965,7.5 2.67,-1.05 5.376,-2.067 8.023,-3.14 -2.375,-5.88 -4.609,-11.902 -6.977,-17.789 -13.15,5.103 -26.333,10.175 -39.416,15.348 2.031,5.818 4.489,11.209 6.454,17.091 C -5.162,2.164 -2.786,0.877 0,0"
             id="path3056"
             style="fill:#008000;fill-opacity:1;fill-rule:evenodd;stroke:none" /></g><g
           transform="translate(81.3438,458.8843)"
           id="g3058"
           style="fill:#008000"><path
             d="M 0,0 C 0.85,1.882 1.235,4.23 1.918,6.278 4.735,5.606 7.346,4.729 10.116,4.011 8.542,-1.74 6.932,-7.455 5.232,-13.08 c -13.542,3.84 -26.989,7.776 -40.637,11.51 0.961,3.632 1.774,7.412 3.139,10.639 C -21.432,6.125 -10.881,2.897 0,0"
             id="path3060"
             style="fill:#008000;fill-opacity:1;fill-rule:evenodd;stroke:none" /></g><g
           transform="translate(52.2178,447.1987)"
           id="g3062"
           style="fill:#008000"><path
             d="m 0,0 c -0.601,-2.19 -0.841,-4.74 -1.395,-6.976 2.207,-0.991 5.401,-0.994 7.848,-1.744 0.312,2.363 0.833,4.516 1.221,6.802 2.738,-0.402 5.221,-1.058 8.022,-1.396 -0.436,-2.179 -0.876,-4.355 -1.22,-6.627 2.579,-1.025 6.072,-1.136 8.895,-1.918 0.691,2.505 1.09,5.304 1.569,8.023 2.718,-0.597 5.545,-1.083 8.372,-1.57 -1.085,-6.356 -2.277,-12.606 -3.488,-18.836 -13.965,2.487 -27.687,5.218 -41.683,7.674 1.235,5.972 2.165,12.252 3.487,18.138 C -5.603,1.025 -2.755,0.56 0,0"
             id="path3064"
             style="fill:#008000;fill-opacity:1;fill-rule:evenodd;stroke:none" /></g><g
           transform="translate(266.1807,363.2207)"
           id="g3066"
           style="fill:#008000"><path
             d="m 0,0 c -20.501,-7.753 -41.675,-17.123 -62.098,-24.688 0.659,-3.263 2.406,-8.121 -0.215,-10.371 -3.352,-2.879 -9.635,-0.097 -13.938,-1.259 -8.511,-2.299 -10.983,-8.385 -17.74,-11.505 -10.351,-4.78 -22.76,-8.117 -32.019,-11.942 -5.46,4.405 -10.152,16.585 -8.975,23.284 11.418,3.565 21.732,10.843 33.212,13.718 5.504,1.38 10.433,-0.406 16.958,2.508 4.643,2.072 8.418,8.917 12.525,9.351 3.652,0.385 5.755,-3.859 7.471,-7.196 11.329,4.974 23.101,9.518 36.07,14.578 C -16.889,1.105 -4.952,8.044 3.449,7.208 8.586,6.695 0.611,0.581 0,0"
             id="path3068"
             style="fill:#008000;fill-opacity:1;fill-rule:evenodd;stroke:none" /></g><g
           transform="translate(272.5566,413.9106)"
           id="g3070"
           style="fill:#008000"><path
             d="m 0,0 c -5.886,1.042 -11.753,1.949 -17.754,2.666 -2.948,-2.944 -5.839,-5.954 -8.736,-8.958 1.458,-4.035 3.455,-7.749 5.192,-11.617 5.876,-1.429 12.133,-2.329 17.751,-3.58 0.596,-4.876 -4.746,-7.267 -8.776,-8.297 -4.711,-1.203 -10.369,-1.407 -16.006,-0.511 -12.598,2.001 -18.683,8.927 -22.514,15.907 -13.952,3.211 -31.407,5.999 -46.566,8.673 -1.976,0.348 -6.986,1.293 -8.879,0.874 -0.77,-0.168 -1.696,-1.159 -2.623,-1.902 -5.571,-4.455 -13.05,-7.576 -24.064,-5.531 -8.244,1.53 -16.193,5.395 -19.629,10.441 -1.093,1.606 -2.444,3.919 -0.777,6.149 5.661,-0.684 11.827,-1.944 17.777,-2.538 3.148,2.803 6.019,5.94 8.906,9.059 -1.506,3.931 -3.566,7.531 -5.067,11.464 -5.943,1.428 -12.226,2.352 -17.898,3.606 -0.596,4.876 4.747,7.267 8.775,8.296 4.712,1.203 10.369,1.408 16.006,0.513 12.6,-2.002 18.684,-8.929 22.515,-15.908 12.615,-3.079 27.917,-5.331 42.127,-7.779 2.143,-0.368 4.791,-0.903 7.135,-1.229 1.948,-0.269 4.871,-0.83 6.182,-0.54 1.05,0.23 3.128,2.318 4.031,2.967 4.159,2.989 8.573,4.726 15.093,4.985 C -16.452,17.662 -3.416,12.145 0.132,5.208 0.687,4.122 1.697,1.287 0,0"
             id="path3072"
             style="fill:#008000;fill-opacity:1;fill-rule:evenodd;stroke:none" /></g><g
           transform="translate(371.3418,428.2935)"
           id="g3074"
           style="fill:#008000"><path
             d="m 0,0 c 0.121,-12.205 -0.243,-24.895 0.184,-36.797 12.325,0.119 25.136,-0.243 37.159,0.18 -0.119,12.329 0.243,25.141 -0.182,37.164 l -36.796,0 C 0.135,0.473 -0.008,0.312 0,0 m 38.437,112.032 c 12.449,-0.121 25.38,0.242 37.524,-0.182 l 0,-37.527 -37.524,0 c 0.145,-12.239 0.531,-24.244 0.727,-36.433 11.278,-0.348 22.995,0.447 34.43,0.548 l 0,-36.251 c 11.884,-0.93 24.746,-0.88 36.98,-1.458 0.135,-12.312 0.593,-24.303 0.728,-36.616 11.277,-0.346 22.978,0.463 34.429,0.546 0.567,-36.597 0.861,-73.462 1.276,-110.209 l -36.433,0 c -0.62,24.641 -1.124,49.396 -1.639,74.14 -12.184,-0.081 -24.178,-0.352 -36.434,-0.362 0.31,-24.649 1.179,-48.737 1.457,-73.413 l -36.797,0 c -0.425,-11.539 -0.06,-23.865 -0.182,-35.706 l -73.958,0 0,35.887 73.593,0 c -10e-4,11.597 -0.401,24.373 -0.727,36.252 -34.549,-0.123 -68.777,-0.57 -103.287,-0.73 -0.503,48.806 -0.791,97.822 -1.276,146.644 22.964,0.013 45.667,-0.239 68.493,-0.364 -0.014,12.554 -0.279,24.858 -0.364,37.344 12.968,0.269 25.577,0.897 38.618,1.093 0.427,11.719 0.062,24.228 0.183,36.251 -0.017,0.259 -0.029,0.515 0.183,0.546"
             id="path3076"
             style="fill:#008000;fill-opacity:1;fill-rule:evenodd;stroke:none" /></g><g
           transform="translate(241.7622,476.3232)"
           id="g3078"
           style="fill:#008000"><path
             d="m 0,0 c -2.744,0.229 -4.627,2.672 -4.5,5.202 0.128,2.532 1.912,4.445 4.384,4.675 1.096,0.102 2.094,-0.205 2.747,-0.409 -13.433,12.225 -26.985,24.331 -40.562,36.411 -3.313,-3.623 -6.458,-7.412 -9.702,-11.104 5.515,-4.947 10.997,-10.239 16.482,-15.021 -0.814,1.082 -1.294,2.405 -1.169,4.033 0.147,1.898 1.268,3.43 2.455,4.267 3.644,2.568 8.921,0.116 9.234,-4.267 0.346,-4.828 -4.669,-7.908 -8.942,-5.552 15.391,-14.001 31.122,-28.904 46.931,-42.958 2.13,-1.893 4.472,-4.851 8.066,-4.851 2.3,0 4.163,1.323 5.611,2.514 1.478,1.215 2.996,2.71 2.805,5.376 -0.289,4.042 -3.74,6.31 -6.137,8.475 C 20.333,-6.551 12.863,0.122 5.553,6.779 5.331,6.981 4.724,7.691 4.734,7.481 6.668,3.785 3.974,-0.331 0,0 m -47.983,54.588 c -0.363,0.329 -1.147,0.952 -1.287,1.286 -0.21,0.508 -0.264,1.387 -0.408,2.045 -0.168,0.764 -0.223,2.062 -0.935,1.753 -1.353,-0.586 -2.504,-1.82 -3.507,-2.922 -1.026,-1.126 -2.05,-2.313 -3.039,-3.389 -2.184,-2.38 -4.155,-4.606 -5.67,-7.248 0.868,-1.123 2.437,-1.123 3.683,-1.636 0.445,-0.184 0.969,-0.67 1.461,-1.053 3.354,-2.612 6.461,-5.544 9.643,-8.065 3.152,3.667 6.386,7.252 9.469,10.988 -2.954,2.626 -6.457,5.56 -9.41,8.241 m -3.156,6.838 0.76,0 c 1.502,-0.4 2.248,-1.78 2.746,-3.215 0.125,-0.358 0.124,-0.821 0.293,-1.169 0.169,-0.348 0.928,-0.908 1.461,-1.402 7.315,-6.797 14.974,-13.536 22.384,-20.105 7.993,-7.086 16.152,-14.409 23.904,-21.45 7.811,-7.093 15.913,-14.328 23.787,-21.566 1.78,-1.635 3.858,-3.443 5.962,-5.377 2.053,-1.887 3.999,-3.573 5.027,-6.312 1.243,-3.316 0.109,-6.55 -1.871,-8.415 -1.959,-1.848 -3.982,-3.35 -7.422,-3.859 l -0.935,0 c -2.728,0.251 -4.861,1.704 -6.722,3.332 -5.304,4.64 -10.448,9.583 -15.663,14.319 -6.945,6.307 -13.876,12.713 -20.865,19.111 -10.374,9.498 -20.856,19.034 -31.327,28.697 -2.474,2.283 -5.179,4.872 -7.89,7.131 -0.997,0.831 -1.956,1.841 -3.039,2.337 -1.488,0.683 -3.559,0.651 -4.033,2.572 l 0,0.701 c 0.1,0.285 0.289,0.858 0.526,1.227 0.788,1.226 2.132,2.249 3.156,3.39 2.028,2.26 3.901,4.836 6.078,7.014 1.071,1.07 2.418,2.711 3.683,3.039"
             id="path3080"
             style="fill:#008000;fill-opacity:1;fill-rule:evenodd;stroke:none" /></g><g
           transform="translate(246.3218,471.5308)"
           id="g3082"
           style="fill:#008000"><path
             d="M 0,0 C 2.417,0.365 4.299,-1.345 4.207,-3.683 4.127,-5.767 2.564,-6.892 1.285,-7.072 -1.129,-7.412 -2.83,-5.686 -2.981,-3.857 -3.153,-1.784 -1.802,-0.273 0,0"
             id="path3084"
             style="fill:#008000;fill-opacity:1;fill-rule:evenodd;stroke:none" /></g><g
           transform="translate(213.7129,265.3975)"
           id="g3086"
           style="fill:#008000"><path
             d="m 0,0 c -5.875,5.652 -11.485,11.359 -18.246,16.829 12.516,3.486 23.56,6.554 36.093,9.76 -4.542,5.675 -7.934,8.533 -13.58,13.978 16.249,9.809 32.587,18.158 48.877,27.29 C 61.393,58.881 69.789,49.935 78.732,41.101 65.14,36.845 51.389,35.195 37.811,30.723 44.879,25.698 50.716,20.419 57.097,15.254 46.826,13.84 36.156,12.823 25.904,11.086 31.585,3.866 35.808,-0.366 42.621,-7.731 34.336,-10.019 30.045,-9.809 22.407,-11.389 -0.336,-16.097 -24.495,-19.837 -47.535,-24.721 -33.217,-15.987 -15.575,-8.563 0,0"
             id="path3088"
             style="fill:#008000;fill-opacity:1;fill-rule:evenodd;stroke:none" /></g></g></g></g></svg>