<?xml version="1.0" encoding="utf-8"?>
<!-- Generator: Adobe Illustrator 18.0.0, SVG Export Plug-In . SVG Version: 6.00 Build 0)  -->
<!DOCTYPE svg PUBLIC "-//W3C//DTD SVG 1.1 Tiny//EN" "http://www.w3.org/Graphics/SVG/1.1/DTD/svg11-tiny.dtd">
<svg version="1.1" baseProfile="tiny"
	 id="svg3004" xmlns:svg="http://www.w3.org/2000/svg" xmlns:cc="http://creativecommons.org/ns#" xmlns:dc="http://purl.org/dc/elements/1.1/" xmlns:rdf="http://www.w3.org/1999/02/22-rdf-syntax-ns#"
	 xmlns="http://www.w3.org/2000/svg" xmlns:xlink="http://www.w3.org/1999/xlink" x="0px" y="0px" viewBox="6.9 5.5 702.5 702.3"
	 xml:space="preserve">
<g>
	<g id="g3016">
		<g id="g3022" transform="translate(36.7886,416.6313)">
			<path id="path3024" fill="#E5E5E5" d="M-5.2-96.7c16.1,2.6,32.4,4.9,48.4,7.5c0.2,4.3-0.2,8.5-0.4,12.6
				c-1.4,32.1,2.8,61.7,9.8,86.4c15.9,57,46.6,101.1,85.6,135.3c19.7,17.2,42.4,31.9,67.1,43.1c25.1,11.4,54.1,20.5,87.1,23.4
				c36.2,3.2,70.4-0.3,99.7-7.9c57.7-15,101.2-45.8,136.3-84.4c17.6-19.4,32.2-41.3,43.9-66.5c11.8-25.3,20.6-53.5,24.2-86.2
				c3.8-34.6,0.9-70.5-6.7-100.1c-7.5-29.2-19.1-54.8-32.9-77.3c-27.5-44.8-67-80.8-116.3-104.5c-36.5-17.6-81.8-29.5-137.9-26.8
				c-16.9,0.8-32.5,4-47.8,7.3c-5.9-14-11-28.8-16.3-43.3c36.9-10.6,88.2-13.2,131.8-6.7c54.4,8.2,98.1,28.1,135.5,53.5
				c25.2,17.2,46.6,37.1,65.9,60c19.1,22.6,36.2,48.6,48.6,77.3c12.6,29.1,22.7,61.9,26.4,99.7c3.9,39.6,0.4,80.6-8.3,114.3
				c-17.3,66.6-50.5,116.7-93.6,158.2c-10.5,10.1-22.2,19.7-34.6,28.5c-36.4,26-80.8,46.6-133.4,55.5c-36.9,6.3-78.4,6.4-114.9-0.4
				c-35.1-6.5-66.2-18.2-93.6-32.3c-54.6-28.2-97.6-70.7-129.4-122.4C23.2,81.3,10.3,50.7,2.3,17.6C-5.8-15.8-9.9-55.7-5.2-96.7"/>
		</g>
		<g id="g3026" transform="translate(219.1255,625.9668)">
			<path id="path3028" fill="#E5E5E5" d="M25.1-550.2c1.6,4.3,3.5,8.3,5.1,12.6c1.5-0.1,2.2-1,3.1-1.8c-0.6-4.7-2.5-8.1-4.5-11.4
				C27.1-550.9,26.3-550.3,25.1-550.2 M18.1-567.4c1,3.7,2.8,6.6,3.9,10.2c1.3-0.4,2.4-0.9,3.1-1.8c-0.4-3.8-1.6-6.9-3.9-8.9
				C19.8-568.2,19.2-567.6,18.1-567.4 M32.4-557.9c6.4-1.6,9.3,3.3,11.4,8.3c1.5,3.8,4.6,9.9,1.6,13.8c-2,2.7-7.9,4.7-11.4,6.1
				c-4.5,1.8-8.5,3.5-12.6,4.9c-6-15.4-12.5-30.2-18.5-45.6c6.2-1.8,12.7-6.8,20.1-7.5c3.9-0.4,7,1.3,8.7,3.5
				C35.1-570.3,39-560.8,32.4-557.9"/>
		</g>
		<g id="g3030" transform="translate(186.5107,622.4785)">
			<path id="path3032" fill="#E5E5E5" d="M19.6-542.6c-0.4-0.6-1.2-1.8-1.4-1.4c2.6,6,5.2,12,7.7,18.1c1.4-0.5,2.4-1.5,3.9-2
				C26.5-532.6,22.8-538,19.6-542.6 M51-520c-3.5,2.5-7.6,4.4-11.2,6.7c-2.1-2.1-3.3-5-5.3-7.1c-1.5,0.5-2.5,1.5-3.9,2
				c1.2,2.7,2.5,5.2,3.7,7.9c-3.6,2.5-7.5,4.7-11.6,6.7c-6.1-15.4-12.5-30.4-18.7-45.8c4.9-3.6,10.8-6.2,15.9-9.6
				C30.3-546.2,40.5-532.9,51-520"/>
		</g>
		<g id="g3034" transform="translate(177.7905,591.6084)">
			<path id="path3036" fill="#E5E5E5" d="M18.2-475.7c2.5-1.1,4.2-3.2,6.7-4.3c1.6,2.8,3.6,5.3,5.5,7.9c-5.6,4.1-11.2,8.2-17.1,12
				C4.1-473.8-5.8-486.8-15-500.5c3.6-2.3,7-4.8,10.4-7.3C3.1-497.3,10.6-486.4,18.2-475.7"/>
		</g>
		<g id="g3038" transform="translate(139.9438,586.7246)">
			<path id="path3040" fill="#E5E5E5" d="M11.9-465.2c3.8,4.4,7.8,8.5,11.4,12.6c1.4,1.6,4.2,6.1,6.3,5.7c4.1-0.7-1.9-6.5-3.5-8.3
				c-3.9-4.5-7.6-8.8-11.2-12.8c-1.4-1.6-4.8-6.2-6.7-5.7C4.3-472.6,10.6-466.6,11.9-465.2 M10.5-483.9c6.9-1,9.9,3,13.2,6.7
				c4.4,4.8,7.7,8.3,12.2,13.6c2.6,3.2,5.9,5.8,5.9,11.6c0.1,9.2-12.4,18.6-21.4,14.2c-2.3-1.1-4.8-3.8-6.7-5.9
				c-3.9-4.2-8-9.1-11.8-13.4c-3.6-4.2-7.6-9.9-4.9-16.5C-1.2-477.6,4.3-483,10.5-483.9"/>
		</g>
		<g id="g3042" transform="translate(117.4458,566.8428)">
			<path id="path3044" fill="#E5E5E5" d="M8.2-422.1c-2.1-2-4.5-4-6.7-1.2c2.3,2.8,5.3,5,8.1,7.3C12.4-418.4,10.4-420.1,8.2-422.1
				 M42.5-408.1c-2.4,3.2-5.3,5.9-7.7,9.2c-3.5-2.8-8.1-7-12.2-10.6c-2.2-1.9-5.1-4.8-7.1-1.2c5.5,4.9,11.1,9.8,16.7,14.6
				c-3,3.1-5.5,6.7-8.7,9.6C11.2-397.3-1.2-408-13.4-418.8c4-4,9.7-13.1,15.1-16.3c4.8-2.9,10.5,0.4,13.8,3.3
				c2.8,2.4,7.6,7.5,3.3,12c6.5-5.1,11.1,0.9,15.9,5.1C37.4-412.3,40.3-410,42.5-408.1"/>
		</g>
		<g id="g3046" transform="translate(100.5283,552.541)">
			<path id="path3048" fill="#E5E5E5" d="M5.3-391.1c-1.2,2.2-2.7,4-4.1,6.1c10.5,7.7,21.5,15,32.3,22.4c-2.1,3.8-4.9,7-7.1,10.8
				C15.6-359.2,4.7-366.7-6-374.2c-1.5,2-3,4-4.3,6.3c-2-1.2-4-2.7-6.3-4.3c-0.4-0.2-2-1.2-2-1.4c-0.1-0.7,3.1-4.5,3.9-5.7
				c4-5.9,8.7-12.3,12-17.5C-0.1-394.9,2.8-393.1,5.3-391.1"/>
		</g>
		<g id="g3050" transform="translate(91.9829,522.0195)">
			<path id="path3052" fill="#E5E5E5" d="M3.9-325c-1.8,4-3.9,7.6-5.9,11.4c-2.8-1.2-5.9-3.2-8.9-4.7c-1.7-0.8-5-2-4.9,1.2
				c0.1,2.2,4.1,3.6,6.5,4.9c5.3,2.8,10,5,15.1,7.7c2.1,1.1,5.5,3.9,7.7,3.7c1.2-0.2,1.8-1.4,1.8-2c0.1-2-3-3.3-4.5-4.1
				c-2.2-1.2-3.9-1.8-5.7-2.8c1.9-3.9,4-7.6,5.9-11.4c4.5,2.7,9.4,3.9,12,7.9c4.1,6.4,0.4,16.1-4.5,20.7c-2.1,2-5.1,3.7-9.4,3.3
				c-5.5-0.6-10.5-4.3-16.3-7.3c-5.4-2.8-11.8-5.2-15.1-8.5c-7.7-7.9-0.1-27.3,12.6-25.8C-4.2-330.3-0.3-326.7,3.9-325"/>
		</g>
		<g id="g3054" transform="translate(67.7397,495.8579)">
			<path id="path3056" fill="#E5E5E5" d="M-0.1-268.3c-0.9,2.8-1.9,5.4-3.1,7.9c2.7,1.3,5.7,2.3,8.5,3.5c1.3-2.2,1.9-5,3.1-7.3
				c3.1,0.9,5.8,2.2,8.7,3.3c-0.8,2.6-1.8,5-2.8,7.3c3,1.6,6.7,2.7,10,4.1c1.3-2.7,2.4-5.8,3.5-8.7c3.1,1.2,6.3,2.4,9.4,3.7
				c-2.8,6.9-5.4,13.9-8.1,20.7c-15.3-6-30.7-11.9-46-17.9c2.4-6.8,5.2-13.1,7.5-19.9C-6.1-270.8-3.4-269.3-0.1-268.3"/>
		</g>
		<g id="g3058" transform="translate(81.3438,458.8843)">
			<path id="path3060" fill="#E5E5E5" d="M2.2-188.2c1-2.2,1.4-4.9,2.2-7.3c3.3,0.8,6.3,1.8,9.6,2.6c-1.8,6.7-3.7,13.4-5.7,19.9
				c-15.8-4.5-31.5-9.1-47.4-13.4c1.1-4.2,2.1-8.6,3.7-12.4C-22.8-195.4-10.5-191.6,2.2-188.2"/>
		</g>
		<g id="g3062" transform="translate(52.2178,447.1987)">
			<path id="path3064" fill="#E5E5E5" d="M-2.7-162.9c-0.7,2.6-1,5.5-1.6,8.1c2.6,1.2,6.3,1.2,9.2,2c0.4-2.8,1-5.3,1.4-7.9
				c3.2,0.5,6.1,1.2,9.4,1.6c-0.5,2.5-1,5.1-1.4,7.7c3,1.2,7.1,1.3,10.4,2.2c0.8-2.9,1.3-6.2,1.8-9.4c3.2,0.7,6.5,1.3,9.8,1.8
				c-1.3,7.4-2.7,14.7-4.1,22c-16.3-2.9-32.3-6.1-48.6-8.9c1.4-7,2.5-14.3,4.1-21.2C-9.2-164.1-5.9-163.6-2.7-162.9"/>
		</g>
		<g id="g3066" transform="translate(266.1807,363.2207)">
			<path id="path3068" fill="#E5E5E5" d="M32.9,19C9,28-15.7,39-39.5,47.8c0.8,3.8,2.8,9.5-0.3,12.1C-43.7,63.2-51,60-56,61.3
				C-66,64-68.9,71.1-76.7,74.8c-12.1,5.6-26.5,9.5-37.3,13.9c-6.4-5.1-11.8-19.3-10.5-27.2c13.3-4.2,25.3-12.6,38.7-16
				c6.4-1.6,12.2,0.5,19.8-2.9c5.4-2.4,9.8-10.4,14.6-10.9c4.3-0.4,6.7,4.5,8.7,8.4c13.2-5.8,26.9-11.1,42.1-17
				c13.8-5.4,27.8-13.5,37.5-12.5C42.9,11.2,33.6,18.3,32.9,19"/>
		</g>
		<g id="g3070" transform="translate(272.5566,413.9106)">
			<path id="path3072" fill="#E5E5E5" d="M33.9-90.8c-6.9-1.2-13.7-2.3-20.7-3.1C9.8-90.5,6.4-87,3-83.5c1.7,4.7,4,9,6.1,13.5
				c6.9,1.7,14.1,2.7,20.7,4.2c0.7,5.7-5.5,8.5-10.2,9.7c-5.5,1.4-12.1,1.6-18.7,0.6C-13.8-57.8-20.9-65.9-25.4-74
				c-16.3-3.7-36.6-7-54.3-10.1c-2.3-0.4-8.1-1.5-10.4-1c-0.9,0.2-2,1.4-3.1,2.2c-6.5,5.2-15.2,8.8-28.1,6.5
				c-9.6-1.8-18.9-6.3-22.9-12.2c-1.3-1.9-2.9-4.6-0.9-7.2c6.6,0.8,13.8,2.3,20.7,3c3.7-3.3,7-6.9,10.4-10.6
				c-1.8-4.6-4.2-8.8-5.9-13.4c-6.9-1.7-14.3-2.7-20.9-4.2c-0.7-5.7,5.5-8.5,10.2-9.7c5.5-1.4,12.1-1.6,18.7-0.6
				c14.7,2.3,21.8,10.4,26.3,18.6c14.7,3.6,32.6,6.2,49.1,9.1c2.5,0.4,5.6,1.1,8.3,1.4c2.3,0.3,5.7,1,7.2,0.6
				c1.2-0.3,3.6-2.7,4.7-3.5c4.9-3.5,10-5.5,17.6-5.8c13.2-0.5,28.4,5.9,32.6,14C34.7-95.6,35.9-92.3,33.9-90.8"/>
		</g>
		<g id="g3074" transform="translate(371.3418,428.2935)">
			<path id="path3076" fill="#E5E5E5" d="M50.4-122c0.1,14.2-0.3,29,0.2,42.9c14.4-0.1,29.3,0.3,43.3-0.2
				c-0.1-14.4,0.3-29.3-0.2-43.3H50.8C50.5-122.5,50.3-122.3,50.4-122 M95.2-252.6c14.5,0.1,29.6-0.3,43.8,0.2v43.8H95.2
				c0.2,14.3,0.6,28.3,0.8,42.5c13.2,0.4,26.8-0.5,40.2-0.6v42.3c13.9,1.1,28.9,1,43.1,1.7c0.2,14.4,0.7,28.3,0.8,42.7
				c13.2,0.4,26.8-0.5,40.2-0.6c0.7,42.7,1,85.7,1.5,128.5h-42.5c-0.7-28.7-1.3-57.6-1.9-86.5c-14.2,0.1-28.2,0.4-42.5,0.4
				c0.4,28.7,1.4,56.8,1.7,85.6H93.7c-0.5,13.5-0.1,27.8-0.2,41.6H7.2V47.1h85.8c0-13.5-0.5-28.4-0.8-42.3C51.9,5,12,5.5-28.2,5.7
				c-0.6-56.9-0.9-114.1-1.5-171c26.8,0,53.3,0.3,79.9,0.4c0-14.6-0.3-29-0.4-43.5c15.1-0.3,29.8-1,45-1.3
				c0.5-13.7,0.1-28.3,0.2-42.3C94.9-252.3,94.9-252.6,95.2-252.6"/>
		</g>
		<g id="g3078" transform="translate(241.7622,476.3232)">
			<path id="path3080" fill="#E5E5E5" d="M28.8-226c-3.2-0.3-5.4-3.1-5.2-6.1c0.1-3,2.2-5.2,5.1-5.5c1.3-0.1,2.4,0.2,3.2,0.5
				c-15.7-14.3-31.5-28.4-47.3-42.5c-3.9,4.2-7.5,8.6-11.3,12.9c6.4,5.8,12.8,11.9,19.2,17.5c-0.9-1.3-1.5-2.8-1.4-4.7
				c0.2-2.2,1.5-4,2.9-5c4.2-3,10.4-0.1,10.8,5c0.4,5.6-5.4,9.2-10.4,6.5c17.9,16.3,36.3,33.7,54.7,50.1c2.5,2.2,5.2,5.7,9.4,5.7
				c2.7,0,4.9-1.5,6.5-2.9c1.7-1.4,3.5-3.2,3.3-6.3c-0.3-4.7-4.4-7.4-7.2-9.9c-8.6-7.8-17.3-15.5-25.8-23.3c-0.3-0.2-1-1.1-1-0.8
				C36.6-230.4,33.5-225.6,28.8-226 M-27.1-289.7c-0.4-0.4-1.3-1.1-1.5-1.5c-0.2-0.6-0.3-1.6-0.5-2.4c-0.2-0.9-0.3-2.4-1.1-2
				c-1.6,0.7-2.9,2.1-4.1,3.4c-1.2,1.3-2.4,2.7-3.5,4c-2.5,2.8-4.8,5.4-6.6,8.5c1,1.3,2.8,1.3,4.3,1.9c0.5,0.2,1.1,0.8,1.7,1.2
				c3.9,3,7.5,6.5,11.2,9.4c3.7-4.3,7.4-8.5,11-12.8C-19.6-283.1-23.7-286.5-27.1-289.7 M-30.8-297.6h0.9c1.8,0.5,2.6,2.1,3.2,3.7
				c0.1,0.4,0.1,1,0.3,1.4c0.2,0.4,1.1,1.1,1.7,1.6c8.5,7.9,17.5,15.8,26.1,23.4c9.3,8.3,18.8,16.8,27.9,25
				c9.1,8.3,18.6,16.7,27.7,25.1c2.1,1.9,4.5,4,7,6.3c2.4,2.2,4.7,4.2,5.9,7.4c1.4,3.9,0.1,7.6-2.2,9.8c-2.3,2.2-4.6,3.9-8.7,4.5
				h-1.1c-3.2-0.3-5.7-2-7.8-3.9c-6.2-5.4-12.2-11.2-18.3-16.7c-8.1-7.4-16.2-14.8-24.3-22.3c-12.1-11.1-24.3-22.2-36.5-33.5
				c-2.9-2.7-6-5.7-9.2-8.3c-1.2-1-2.3-2.1-3.5-2.7c-1.7-0.8-4.2-0.8-4.7-3v-0.8c0.1-0.3,0.3-1,0.6-1.4c0.9-1.4,2.5-2.6,3.7-4
				c2.4-2.6,4.5-5.6,7.1-8.2C-33.9-295.3-32.3-297.3-30.8-297.6"/>
		</g>
		<g id="g3082" transform="translate(246.3218,471.5308)">
			<path id="path3084" fill="#E5E5E5" d="M29.6-215.6c2.8-0.4,5,1.6,4.9,4.3c-0.1,2.4-1.9,3.7-3.4,4c-2.8,0.4-4.8-1.6-5-3.7
				C25.9-213.5,27.5-215.3,29.6-215.6"/>
		</g>
		<g id="g3086" transform="translate(213.7129,265.3975)">
			<path id="path3088" fill="#E5E5E5" d="M24.2,230.9c-6.9-6.6-13.4-13.2-21.3-19.6c14.6-4.1,27.5-7.6,42.1-11.4
				c-5.3-6.6-9.3-10-15.8-16.3c18.9-11.4,38-21.2,57-31.8c9.6,10.5,19.4,20.9,29.8,31.2c-15.9,5-31.9,6.9-47.7,12.1
				c8.2,5.9,15,12,22.5,18c-12,1.6-24.4,2.8-36.4,4.9c6.6,8.4,11.5,13.4,19.5,21.9c-9.7,2.7-14.7,2.4-23.6,4.3
				c-26.5,5.5-54.7,9.9-81.6,15.5C-14.6,249.5,6,240.9,24.2,230.9"/>
		</g>
	</g>
</g>
</svg>
