<?xml version="1.0" encoding="UTF-8" standalone="no"?>
<svg
   xmlns:dc="http://purl.org/dc/elements/1.1/"
   xmlns:cc="http://creativecommons.org/ns#"
   xmlns:rdf="http://www.w3.org/1999/02/22-rdf-syntax-ns#"
   xmlns:svg="http://www.w3.org/2000/svg"
   xmlns="http://www.w3.org/2000/svg"
   xmlns:sodipodi="http://sodipodi.sourceforge.net/DTD/sodipodi-0.dtd"
   xmlns:inkscape="http://www.inkscape.org/namespaces/inkscape"
   version="1.1"
   viewBox="0 0 703 652"
   id="svg3290"
   inkscape:version="0.48.5 r10040"
   width="100%"
   height="100%"
   sodipodi:docname="hexdoll_soldering_iron_stand - copie.svg">
  <sodipodi:namedview
     pagecolor="#ffffff"
     bordercolor="#666666"
     borderopacity="1"
     objecttolerance="10"
     gridtolerance="10"
     guidetolerance="10"
     inkscape:pageopacity="0"
     inkscape:pageshadow="2"
     inkscape:window-width="640"
     inkscape:window-height="480"
     id="namedview3572"
     showgrid="false"
     inkscape:zoom="0.36196319"
     inkscape:cx="351.5"
     inkscape:cy="326"
     inkscape:window-x="663"
     inkscape:window-y="211"
     inkscape:window-maximized="0"
     inkscape:current-layer="svg3290" />
  <defs
     id="defs3574" />
  <path
     id="path3292"
     fill="#ffffff"
     d="m0 0h703v652h-703v-652z"
     stroke-width=".125"
     stroke="#ffffff" />
  <path
     id="path3294"
     fill="#b9b9b9"
     d="m359.4 47.1c3.8-2.1 7.9 0.3 11 2.5 13.2 9.7 23.7 22.4 34.3 34.7 16.3 20.3 32.3 41.1 43.5 64.7 2.2 4.2 2.6 9.1 2.5 13.8-4.8 3.3-9.9 6.2-15.6 7.6-7.3 3.3-12.5 10.1-20.3 12.5-2.1 1.1-4.2 2.3-6.7 2.4-0.6 2.6-1.6 5.3-4.1 6.6-3.6 0.8-7.2 0-10.5-1.5-6.5-3.5-12.8-7.5-18.1-12.8-0.7 1-1.9 2-1.1 3.3 0.8 2.9 1.5 5.7 2.4 8.6 1.6 6 1.6 12.3 1.1 18.4-0.4 3.8-3 6.8-5.8 9.2-5.5 1.7-11.2 0.6-16.6-1.2-6-2.9-11.9-6.1-17.3-10.1-1.5 1.1-4.5 2.1-3.3 4.4 2.1 6.5 3.2 13.2 3.8 19.9 37.2-5.7 74.4-11.7 111.5-17.6 20-3.1 39.9-6.7 59.9-9.5 5-0.4 10-1.5 15-1.2 2.3-0.2 3.4 2.1 4.7 3.5 9.6 13.7 17.9 28.1 26.6 42.3 17.2 28.8 34.5 57.5 51.6 86.3 15.7 26.4 31.7 52.7 46.9 79.4 4.8 8.9 10.4 17.5 14 27.1 1 3.8 1.7 7.8 0.9 11.7-2 9.6-6.5 18.4-10.2 27.5-1.8 4.7-5.4 8.6-9.9 11-17.2 9-36.3 13.7-54.8 19.3-80.3 21.9-161.3 40.8-242 60.8-62 15-123.9 30.3-185.8 45.3-13.7 2.9-27.6 7-41.7 5-1.8-1-3.3-2.4-4.3-4.2-0.8-7.9-1.1-15.9-1-23.8 0.2-16-4.7-31.5-8.3-46.9-9.1-35.5-18.2-71-27.4-106.5-2.6-10.4-5.2-20.7-8.1-31-2.1-9.1-4.6-18.1-6.8-27.1-0.6-2.2-1-4.6-2.8-6.2-5.7-5.4-10.4-11.9-14.1-18.8-9.5-11.1-17.8-23.3-22.9-37-2.4-6.4-3.3-13.3-2.4-20.1 0.6-2.5 1.3-5.1 3.5-6.7 3.4-3 8.1-2.3 12.3-2.3 0-3.9 0-7.8-0.1-11.7 7.6-1.5 15.4-2.2 23-3.8 0-2.6 0.5-5.2 1.2-7.7 2-2.3 4.6-4.7 8-4.4 7.2-0.7 13.6 3.4 19.2 7.5 6-0.8 12-1.7 18-2.8-2.7-6.9-6.9-13.8-6.4-21.5 0.1-2.9-0.5-6.2 1.7-8.4 2.6-3.7 7.7-3.1 11.5-2.2 10.4 3.8 18.2 12 25.8 19.7 4.1-3.6 8.9-6.5 12.8-10.4-2.5-4.4-4.9-8.7-7.5-13-1.9-5.4-4.7-10.8-4.3-16.7-0.3-3.2 0.7-7.2 4.1-8.3 5.9-1.5 11.5 1.8 16.1 5.1 5.3 4.3 10.4 8.9 14.7 14.3 5.8-3.7 11.4-7.8 17-11.7 0.4-0.6 0.7-1.1 1-1.6-4.7-6.8-9.3-13.9-11.6-21.9-0.7-3.5-0.3-7.1-0.3-10.7 2.4-3.5 7.1-3 10.7-1.8 4.7 2.3 8.7 6 12.3 9.7 3 3.1 6.2 6 8.8 9.5 4-2.2 6.5-6.3 10.3-8.8 3.4-3 7.2-5.3 10.7-8-3.9-7.2-9.6-13.7-11.6-21.8-0.3-2.9-0.3-5.8 0-8.7 1.4-2.2 4.4-2.9 6.8-2 5.7 1.5 9.4 6.4 13.5 10.3 3.3 3.1 5.8 6.9 9 10.2 4.9-4.3 10.3-8 15.2-12.2 2.8-2.5 6.2-4.5 8.4-7.6-0.1-0.5-0.1-1.5-0.1-2-3.6-5.8-8.1-11-10.7-17.4-1.1-3.5-0.7-7.1-0.2-10.7 2.5-0.4 5.2-1.1 7.6 0.3 2.9 1.7 5.5 4 7.6 6.6 3.6 4.4 7.5 8.5 10.6 13.3 6.6-4.8 13-9.9 19.3-15 2.5-3 5.1-6.1 8.8-7.8 0-0.4-0.1-1.3-0.2-1.7-3.8-4.7-7.3-9.7-10.5-14.9-2.1-3.1-1.4-7-1.2-10.5 3.7-3.7 8.8 0.4 11.5 3.5 1.2-1.3 2.5-2.5 3.8-3.8-0.4-2.8-0.3-5.7-0.3-8.6 1.4-1.9 3.2-3.7 5.7-3.6 0.5-1.1 0.9-2.2 1.4-3.3 4.9-3.9 9.5-8.1 14.1-12.3 2.6-1.9 3.2-5.3 5.5-7.5 2-2.1 3.5-4.5 5.7-6.5z"
     stroke-width=".125"
     stroke="#b9b9b9" />
  <path
     id="path3296"
     fill="#e4e5e5"
     d="m362.3 50c2.1 0.7 4.2 1.5 6 2.8 7 4.9 12.8 11.2 18.8 17.1 11.6 12.5 22.5 25.7 32.5 39.5 10.5 14.3 20.6 29.2 27.7 45.5 0.8 1.8 1.3 3.7 0.7 5.6-0.5 0-1.6-0.1-2.1-0.1-0.2-0.6-0.7-1.8-0.9-2.4-1.6-0.7-3.3-1.3-4.9-2.1-12.1-9.9-22.6-21.5-32.5-33.5-13.5-16.7-26.6-33.8-37.5-52.4-3.2-5.2-6.1-10.7-6.9-16.8-0.5 0.1-1.6 0.3-2.1 0.4 1.6 10 7.2 18.6 12.2 27.2 13.6 22.1 29.4 42.8 47.4 61.5 4.4 5.1 9.4 9.5 14.5 13.9l0.8 1.2c-2.7 1.9-5.5 4.2-8.8 4.4-3-1.2-5.5-3.2-8.4-4.6-3.4-1.7-5.5-5-7.8-7.9 2.5 5.7 8.7 8.5 11.9 13.6-0.9 1.7-2.5 2.7-4 3.8-4.6 3.2-8.9 6.7-13.8 9.3-4.4-3.8-8.7-7.6-13.2-11.2 5.8-2.9 11-6.8 16.2-10.7 0.8-0.9 2.4-1.6 2.4-3-1.8-2.7-4.1-4.9-6.2-7.2-7.2 3.3-12.6 9.3-19.1 13.6-15.7-18.2-30.6-37.2-42.5-58.1-3.6-5.8-5.2-12.7-9.3-18.2-0.1 2.1-0.1 4.1 0 6.2-0.7-1.8-1.5-3.5-2.3-5.2-0.5 0.2-1.4 0.6-1.9 0.9 0.7-0.9 1.4-1.9 2.1-2.8 1.1 0.2 2.3 0.3 3.4 0.5 1-5.3 6.3-7.7 9.8-11.2 2.8-2.9 6.7-5 8.5-8.7 2.2-4.3 5.9-7.6 9.3-10.9z"
     stroke-width=".125"
     stroke="#e4e5e5" />
  <path
     id="path3298"
     fill="#b9b9b9"
     d="m361.1 53.6c0.5-0.1 1.6-0.3 2.1-0.4 0.8 6.1 3.7 11.6 6.9 16.8 10.9 18.6 24 35.7 37.5 52.4 9.9 12 20.4 23.6 32.5 33.5 1.1 1.6 2.2 3.2 3.2 4.8-2.9-1.1-5.7-2.5-8.1-4.5-5.1-4.4-10.1-8.8-14.5-13.9-18-18.7-33.8-39.4-47.4-61.5-5-8.6-10.6-17.2-12.2-27.2z"
     stroke-width=".125"
     stroke="#b9b9b9" />
  <path
     id="path3300"
     fill="#f1f2f2"
     d="m329.2 83.1c0.5-0.3 1.4-0.7 1.9-0.9 0.8 1.7 1.6 3.4 2.3 5.2 5.6 13.3 13.9 25.2 22.4 36.8 11 15 23.1 29.3 36.5 42.2 5.1 6.1 12.2 9.8 18.1 14.9-2.2 0.1-4.4 0.2-6.6 0.2-3.2-1.7-6.3-3.4-9.4-5.2v-1c-0.5 0.1-1.5 0.4-2 0.5l0.2-1.5-0.9 0.5c-0.3-0.4-1-1.2-1.4-1.6l0.2-0.5c-1.1-0.4-2.1-0.8-3.2-1.2l0.3-0.7c-0.4-0.3-1.1-0.9-1.5-1.3l-0.8 0.2 0.3-1.4-1.1 0.4c-0.2-1-0.4-2-0.5-3-0.1 0.7-0.3 2-0.4 2.6-0.9 0.1-2.6 0.2-3.5 0.3l-6-6.3 0.6-0.9c0.6-1.2 1.3-2.3 1.9-3.5-18.1-20.4-33.7-43.1-46.2-67.5-0.6-2.4-1-4.9-1.2-7.3z"
     stroke-width=".125"
     stroke="#f1f2f2" />
  <path
     id="path3302"
     fill="#c4c5c5"
     d="m333.4 81.2c4.1 5.5 5.7 12.4 9.3 18.2 11.9 20.9 26.8 39.9 42.5 58.1 1.9 2.7 4.2 5.1 6.7 7.3 4.5 3.6 8.8 7.4 13.2 11.2 4.9-2.6 9.2-6.1 13.8-9.3 1.5-1.1 3.1-2.1 4-3.8-3.2-5.1-9.4-7.9-11.9-13.6 2.3 2.9 4.4 6.2 7.8 7.9 2.9 1.4 5.4 3.4 8.4 4.6 3.3-0.2 6.1-2.5 8.8-4.4l-0.8-1.2c2.4 2 5.2 3.4 8.1 4.5-1-1.6-2.1-3.2-3.2-4.8 1.6 0.8 3.3 1.4 4.9 2.1 0.2 0.6 0.7 1.8 0.9 2.4 0.5 0 1.6 0.1 2.1 0.1-4.4 1.6-8.5 4-13 5.3-5.3 1.4-9.3 5.5-13.7 8.5-3.4 2.7-7.8 4-10.8 7.2-2.4 0.6-4.7 1.2-7 1.7l0.3-1.7c2.2 0 4.4-0.1 6.6-0.2-5.9-5.1-13-8.8-18.1-14.9-13.4-12.9-25.5-27.2-36.5-42.2-8.5-11.6-16.8-23.5-22.4-36.8-0.1-2.1-0.1-4.1 0-6.2z"
     stroke-width=".125"
     stroke="#c4c5c5" />
  <path
     id="path3304"
     fill="#d8d9d9"
     d="m330.4 90.4c12.5 24.4 28.1 47.1 46.2 67.5-0.6 1.2-1.3 2.3-1.9 3.5-3-3.5-5.8-7.1-8.5-10.7-5.7-6.7-11.6-13.2-16.9-20.2 0.8 0 2.3 0.2 3.1 0.3-8.4-11.9-16.8-24-22.8-37.3 0.2-0.8 0.6-2.3 0.8-3.1z"
     stroke-width=".125"
     stroke="#d8d9d9" />
  <path
     id="path3306"
     fill="#f1f2f2"
     d="m314.6 95.3c-0.9-1.4-0.9-4.1 1.5-3.8 4.3 2.6 5.8 7.7 8.7 11.6 1.8 2.5 3.6 5 5.6 7.4l0.2 0.8c5 6.1 9.7 12.4 14.4 18.6 8.2 9.8 16.2 19.8 25.4 28.7 8.4 9.3 17.2 18.5 27.7 25.5 2.6 1.1 5.3-1.1 7.8 0.3l-1.6 3.2c-1.7 0.6-3.6 1.5-5.5 0.8-8.2-3.2-15.6-8.5-21.9-14.6-10.6-9.6-19-21.3-28.5-31.9-0.6-0.1-1.8-0.4-2.4-0.5l0.8-1.2-1.7 0.5c0.1-0.5 0.4-1.6 0.6-2.2l-1 0.1c-5.5-9-13.3-16.6-18.2-26-3.9-5.8-8.5-11.1-11.9-17.3z"
     stroke-width=".125"
     stroke="#f1f2f2" />
  <path
     id="path3308"
     fill="#e4e5e5"
     d="m323.7 97.2c1.8-1.5 3.6-3.1 5.5-4.6l0.4 0.9c6 13.3 14.4 25.4 22.8 37.3-0.8-0.1-2.3-0.3-3.1-0.3-8.3-11.3-18.1-21.4-25.6-33.3z"
     stroke-width=".125"
     stroke="#e4e5e5" />
  <path
     id="path3310"
     fill="#f1f2f2"
     d="m325.7 119.5c0.5-0.1 1.5-0.1 2-0.2 5.3 6.2 9.7 13.2 15.7 18.7v1.5l0.9-0.1c0.5 1.1 1 2.2 1.6 3.3 3.2 5.7 8 10.4 12.1 15.5-1.1 1.6-2.4 3.1-3.2 4.8-0.3 1.7 0.4 3.5 0.6 5.2 2.8-1.3 5.4-3 7.5-5.3 3.3 3.7 6.8 7.4 10 11.3-2.1 3.4-5.5 5.8-9.1 7.5-4.3 3-8.2 6.4-12.2 9.7h-3.8c-1.8 1.6-3.6 3.2-5.2 4.9-3.5-2.9-7.2-5.6-10.7-8.5 1.5-0.7 3.5-0.7 4.4-2.3 1.9-2.7 4-5.2 5.4-8.1-0.2-1.6-2.5-1-3.6-1.1-3.6 1.4-6.9 3.6-10.6 4.6 0 1.1 0.1 2.2 0.2 3.4-2.3-2.2-4.5-4.4-6.8-6.5-6.6-6.3-12.6-13.2-18.5-20.1 1.7-0.5 3.5-1 5.3-1.5 2 4.9 4.4 9.8 8.8 13 4.2 3.8 8.9 6.9 13.9 9.6 1.1-1.2 2.1-2.3 3.2-3.5-5.6-4.1-10.8-8.8-16.7-12.5-2.9-2.6-6.6-5.1-7.3-9.2 1.1-2.1 2.8-4.1 2.7-6.5 0.4-4.4-2.5-9.5-7.2-9.8 0.2-0.3 0.6-1 0.9-1.3 4.5-3.1 8.9-6.4 12.5-10.5 2.1-2.4 4.6-4.2 7.2-6z"
     stroke-width=".125"
     stroke="#f1f2f2" />
  <path
     id="path3312"
     fill="#f1f2f2"
     d="m271.7 123.8c0.6-0.9 1.3-1.7 2.1-2.5 1.5 1.1 3.2 1.9 4.5 3.3 0.1 3.1 1 6 2.6 8.6 3.2 5 6.3 10.1 10.1 14.6 8.6 11 17.8 21.6 28.1 31.1 0.1 0.2 0.5 0.7 0.7 0.9 6.7 7.1 14.3 13.3 21.9 19.3 7.4 6.2 16.5 11.7 26.6 10.4 0.8-1.5 1.8-2.9 2.1-4.6 0.7-7.3-0.6-14.6-2.3-21.7 0.3 0.1 0.9 0.1 1.2 0.1 1.4 4.2 2.5 8.5 3.1 12.9 0.9-5-0.6-9.8-1.2-14.6 2.2 5.9 4.2 12.1 4.9 18.4 0.6 4.4-0.6 9.2-3.8 12.3-3.5 2.8-8.3 2.7-12.3 1.3-9-2.6-16.1-8.9-24.3-13.3-18.7-14-34.5-31.6-48.8-50.1-3.9-7-8.9-13.2-12.9-20.2-1.1-1.9-2.1-4-2.3-6.2z"
     stroke-width=".125"
     stroke="#f1f2f2" />
  <path
     id="path3314"
     fill="#f1f2f2"
     d="m278.9 125c5.5 4.6 10 10.4 14.3 16.2-0.5 0.4-1.6 1.2-2.2 1.7-4.2-5.9-8.8-11.5-12.1-17.9z"
     stroke-width=".125"
     stroke="#f1f2f2" />
  <path
     id="path3316"
     fill="#f1f2f2"
     d="m299.9 146.1c0.6-2.6 2.7-4.5 5-5.6 1.8-0.2 3.1 1.5 4.7 2.3 0.6 2.4 1.3 5.2-0.6 7.3-1.6 2-4.2 2.5-6.7 2.6-1.5-1.8-3.3-4.1-2.4-6.6z"
     stroke-width=".125"
     stroke="#f1f2f2" />
  <path
     id="path3318"
     fill="#e4e5e5"
     d="m345.9 142.7c0.6-0.2 1.9-0.6 2.5-0.8 9.5 10.6 17.9 22.3 28.5 31.9-6.2-0.5-9.1-6.9-13.3-10.5-0.2-0.1-0.5-0.3-0.7-0.4-1.7-1.5-3.4-3-4.9-4.7-4.1-5.1-8.9-9.8-12.1-15.5z"
     stroke-width=".125"
     stroke="#e4e5e5" />
  <path
     id="path3320"
     fill="#ffffff"
     d="m385.2 157.5c6.5-4.3 11.9-10.3 19.1-13.6 2.1 2.3 4.4 4.5 6.2 7.2 0 1.4-1.6 2.1-2.4 3-5.2 3.9-10.4 7.8-16.2 10.7-2.5-2.2-4.8-4.6-6.7-7.3z"
     stroke-width=".125"
     stroke="#ffffff" />
  <path
     id="path3322"
     fill="#f1f2f2"
     d="m298.2 153.4c-1.4-2.6-3.4-4.9-4.2-7.8 0.9-0.1 2.7-0.2 3.6-0.2 0.1 2.2 0.3 4.5 1.5 6.5-0.3 0.5-0.6 1-0.9 1.5z"
     stroke-width=".125"
     stroke="#f1f2f2" />
  <path
     id="path3324"
     fill="#f1f2f2"
     d="m276.1 158.8c2.8-2.3 5-5.2 7.9-7.5 1.6 0.3 2.3 2.2 3.5 3.2 7.8 10.1 16.8 19.2 25.7 28.4 7.3 6.7 14.6 13.3 21.7 20.2-2.6 2.5-5.1 5-7.9 7.2-2.5 1.3-4.8 3.2-7.4 4.3-7 2.4-12.7 7.1-18 12.2-1.1 0.1-2.1 0.2-3.1 0.3-3.8-3.5-8.1-6.3-12-9.6-9.2-8.3-17.7-17.4-25.8-26.8 0.8-0.5 1.5-1 2.3-1.5 0.5-0.2 1.7-0.8 2.2-1 2.5 4.2 5.6 8 9.4 11.1 3.7 3.3 7.3 6.8 12 8.8 2.5 1 5.2-0.1 7.7-0.5-3.6-4.8-8.7-8.1-13.9-11-4.4-3.1-7.9-7.3-11.6-11.1 3.8-4.2 8.7-7.8 10.7-13.4 1.1-3.1 0.1-7.3-3.3-8.5-4.2 0-8 2.2-11.3 4.6 0.5-0.4 1.4-1.2 1.8-1.6 2.9-2.8 6.2-5.3 9.4-7.8z"
     stroke-width=".125"
     stroke="#f1f2f2" />
  <path
     id="path3326"
     fill="#f1f2f2"
     d="m230.5 157.4c-0.9-2.1-0.5-4.5 1.5-5.9 6.7 1.2 11.3 7 15.8 11.6 2.1 2.8 5.7 5 6.2 8.7-0.5 0.2-1.6 0.6-2.1 0.8-4.3-4.4-7.5-10.2-12.9-13.4-0.9-1.2-1.8-2.3-2.7-3.4 1 9.9 7.3 18.4 13.7 25.6 0.5-0.4 1-0.9 1.5-1.3 0-0.7 0.1-2 0.1-2.7 2.2-1.4 4.3-2.9 6.3-4.5-2.4 2.4-5.6 4.8-5.3 8.6l-1.2 1.8c2 3 4.1 5.9 6.5 8.5 12.4 14.7 26.7 27.8 41.9 39.5 5.9 4.8 12.8 8 20.1 10h5.1c1.1-0.4 2.2-0.8 3.3-1.1 4.6-6.8 2.1-15.5 1.4-23.1v-2.1c1 2 1.9 4 2.9 6 0.4-1.5 0.9-2.9 1.3-4.4 1.5 7.3 4.4 15.2 1 22.3-1.9 4.7-6.9 7.6-11.9 6.9-11.6-1-20.8-8.8-30.6-14.3-18.3-13.3-33.7-30.4-47.2-48.5-4.6-8.7-11.3-16.2-14.7-25.6z"
     stroke-width=".125"
     stroke="#f1f2f2" />
  <path
     id="path3328"
     fill="#d8d9d9"
     d="m308.1 155.5c0.5-0.6 1-1.3 1.5-1.9 0.7 4.1 4.4 6.6 7.3 9.2 2.5 2.4 4.5 5.1 6.5 7.9-2.4-0.4-4.7-0.9-6.9-1.5-4.4-3.2-6.8-8.1-8.8-13-1.8 0.5-3.6 1-5.3 1.5h-0.3c-1.3-1.3-2.6-2.7-3.9-4 0.7 0.1 2 0.3 2.6 0.4 0.4 0.5 1.1 1.6 1.4 2.1 2-0.2 4-0.5 5.9-0.7z"
     stroke-width=".125"
     stroke="#d8d9d9" />
  <path
     id="path3330"
     fill="#b9b9b9"
     d="m341 153.9c6.8-1.8 11.7 5.2 13 11.1 0.3 3.3-1.3 6.9-4.3 8.5-2.8 1.6-6.5 0.6-8.7-1.6-2.7-2.6-5.4-5.9-5.5-9.9 0-3.4 1.9-7.3 5.5-8.1z"
     stroke-width=".125"
     stroke="#b9b9b9" />
  <path
     id="path3332"
     fill="#d8d9d9"
     d="m337.9 161c1.7-4.5 7.1-3.4 10.6-1.8v0.2c-0.1 1.9-0.2 3.9-0.3 5.8 1.2-0.6 2.4-1.2 3.7-1.9 0.2 2.9-0.7 5.4-3.1 7.2-5-0.2-11.1-4-10.9-9.5z"
     stroke-width=".125"
     stroke="#d8d9d9" />
  <path
     id="path3334"
     fill="#ffffff"
     d="m354.8 163c0.8-1.7 2.1-3.2 3.2-4.8 1.5 1.7 3.2 3.2 4.9 4.7-2.1 2.3-4.7 4-7.5 5.3-0.2-1.7-0.9-3.5-0.6-5.2z"
     stroke-width=".125"
     stroke="#ffffff" />
  <path
     id="path3336"
     fill="#f1f2f2"
     d="m348.2 165.2c0.1-1.9 0.2-3.9 0.3-5.8 1.2 1.3 2.3 2.6 3.4 3.9-1.3 0.7-2.5 1.3-3.7 1.9z"
     stroke-width=".125"
     stroke="#f1f2f2" />
  <path
     id="path3338"
     fill="#e4e5e5"
     d="m316.9 162.8c5.9 3.7 11.1 8.4 16.7 12.5-1.1 1.2-2.1 2.3-3.2 3.5-5-2.7-9.7-5.8-13.9-9.6 2.2 0.6 4.5 1.1 6.9 1.5-2-2.8-4-5.5-6.5-7.9z"
     stroke-width=".125"
     stroke="#e4e5e5" />
  <path
     id="path3340"
     fill="#e4e5e5"
     d="m270.2 168.3c2.2-0.9 4.7-1.3 7-0.5 1.9 4.4-3.1 8-6 10.6-0.7-1.3-1.4-2.7-1.7-4.2 1.3-1.6 2.8-3 4.3-4.4l-3.6-1.5z"
     stroke-width=".125"
     stroke="#e4e5e5" />
  <path
     id="path3342"
     fill="#f1f2f2"
     d="m254 181c4.7-5 9.5-10.1 16-12.7h0.2l3.6 1.5c-1.5 1.4-3 2.8-4.3 4.4 0.3 1.5 1 2.9 1.7 4.2l0.2 0.5c-4.1 3.2-8.1 7.2-13.4 8.1-1.6-1.8-2.8-3.9-4-6z"
     stroke-width=".125"
     stroke="#f1f2f2" />
  <path
     id="path3344"
     fill="#ffffff"
     d="m327.5 180.9c3.7-1 7-3.2 10.6-4.6 1.1 0.1 3.4-0.5 3.6 1.1-1.4 2.9-3.5 5.4-5.4 8.1-0.9 1.6-2.9 1.6-4.4 2.3-1.4-1.1-2.8-2.3-4.2-3.5-0.1-1.2-0.2-2.3-0.2-3.4z"
     stroke-width=".125"
     stroke="#ffffff" />
  <path
     id="path3346"
     fill="#c4c5c5"
     d="m320.9 177.8c2.3 2.1 4.5 4.3 6.8 6.5 1.4 1.2 2.8 2.4 4.2 3.5 3.5 2.9 7.2 5.6 10.7 8.5-0.3 0.9-0.6 1.9-0.9 2.8-7.6-6-15.2-12.2-21.9-19.3 0.3-0.5 0.8-1.5 1.1-2z"
     stroke-width=".125"
     stroke="#c4c5c5" />
  <path
     id="path3348"
     fill="#f1f2f2"
     d="m190.7 181.2c4.8-0.4 9.1 2.5 12.4 5.7 4.7 3.8 9.3 8 12.5 13.1 1 1.1-1.3 1.4-1.8 2.1-4.4-5.2-8.8-10.6-14.3-14.6-1.4-1.1-3.2-1.2-4.8-1.7 0.1 2.8-0.1 5.7 1.3 8.2 3.2 6.5 6.6 13.1 11.7 18.4 2.6 3.1 4.4 7 7.3 10 12.7 15.4 27.4 29.2 43.8 40.7 6 4.5 12.8 7.7 20.1 9.2 4.2 0.2 10.1 0 11.7-4.8 2.2-6.7 0.9-14 0.4-20.9 0.2 0.1 0.7 0.2 1 0.3l2.1 3.6c0.2-2 0.5-4 0.6-6 1.7 7 3.8 14.6 1.8 21.8-1.5 5.6-6.6 10.3-12.5 10.4-8.8 0.2-16.9-4-24.3-8.4-13.7-7.2-25.5-17.7-36-28.9-3.6-4.3-8.1-7.9-10.8-12.9-0.5 0.6-1 1.2-1.6 1.8 7.1 8.7 15.2 16.4 23.2 24.1 5.1 4.1 9.7 9 15.2 12.6-0.1 0.3-0.2 1.1-0.3 1.4-0.3 0-1.1 0-1.4-0.1-3.3 2.6-6.7 4.9-9.9 7.5-2.5 2.1-4.2 4.9-6.3 7.3-3.9 3.1-8.1 5.9-12.2 8.8v3.3c-0.1-0.5-0.3-1.6-0.4-2.2-4.8-2.8-9.4-6-14.2-8.8 3.4-3.2 6.6-7.3 6.4-12.2-0.2-3.3-2.5-5.9-5.3-7.3-1-0.2-2-0.3-3-0.5-2.3-5-5.3-9.6-8.8-13.8-1.3-2.4-2.7-4.7-3.9-7.1 0-0.2 0.1-0.5 0.1-0.7-0.2 0.1-0.6 0.2-0.9 0.3-2.9-3.1-5.5-6.6-8.2-9.9 0.4-0.5 1.3-1.5 1.7-2l0.4-0.4c5.3-2.6 9.9-6.3 14.8-9.6-0.1 0.1-0.2 0.3-0.3 0.4-2.5 2.6-5.4 5.1-6.6 8.6-1.2 2.7-1.5 6 0.2 8.5 1 2 3.6 1.1 5.3 1.1 5.1-1.3 9.2-4.8 13.4-7.9 0.4-1.5 0.9-3.1 1.4-4.6-3.4-5.1-8.1-9.3-10.6-14.9-4.9-8.1-10.9-15.9-12.6-25.4 0.7-1.2 1.4-2.4 2.2-3.6z"
     stroke-width=".125"
     stroke="#f1f2f2" />
  <path
     id="path3350"
     fill="#b9b9b9"
     d="m302.5 182.6c6.2-2.1 12 3.3 13.6 9 2.1 4.7-1.7 11.2-7.2 10.6-5.3-0.4-9.1-5.4-10.7-10.2-0.8-3.5 0.9-7.9 4.3-9.4z"
     stroke-width=".125"
     stroke="#b9b9b9" />
  <path
     id="path3352"
     fill="#f1f2f2"
     d="m218.9 202.3c8.3-5.7 14.6-14.2 24-18.2 11.9 15.2 25.4 29.3 39.9 42.1 3.2 2.6 5.9 5.9 9.5 8 0.2 0.4 0.5 1.3 0.7 1.7-1 0.8-2 1.6-2.9 2.4-4.4 2-8.2 5-12.1 7.8-5.6 4.2-10.9 8.8-16.4 12.9-0.4 0.2-1.1 0.6-1.5 0.8-17-9.5-30.1-24.3-42.6-39 0.5-0.7 1.4-2.2 1.9-2.9 2.2 1.1 4.4 2.3 6.4 3.8 4.3 4 9.5 6.7 14.8 9l-0.8 2.4c-1.4 3.3-1.8 7.4 0.6 10.5 2 3.2 6.3 3.2 9.6 2.5 6.1-1.8 12-4.9 15.9-10.1 3-3.7 6.1-8.8 3.8-13.6-0.8-2.4-3-4.5-5.7-4.6-7.9-0.7-14.8 4.5-20.3 9.6-9.8-6.5-20.4-13.8-24.8-25.1z"
     stroke-width=".125"
     stroke="#f1f2f2" />
  <path
     id="path3354"
     fill="#d8d9d9"
     d="m268.1 184.8l0.7 0.7c3.7 3.8 7.2 8 11.6 11.1 0.1 1.4 0.3 2.7 0.4 4.1-2.1-0.5-4.1-0.9-6.2-1.4-3.8-3.1-6.9-6.9-9.4-11.1 0.7 0.1 1.5 0.2 2.2 0.2 0.2-1.2 0.5-2.4 0.7-3.6z"
     stroke-width=".125"
     stroke="#d8d9d9" />
  <path
     id="path3356"
     fill="#d8d9d9"
     d="m301.9 186.6c1.7-0.6 3.6-1.5 5.5-0.9 2.1 0.8 3.6 2.6 5.4 3.9-0.6 0-1.8 0.1-2.3 0.1 0.1 2.5 1.1 4.6 3.6 5.4 0.1-1 0.2-2.9 0.2-3.9 0.2 1.6 0.8 3.4-0.2 4.9-1.5 1.2-3.4 1.7-5.1 2.5-1.7-0.7-3.4-1.5-5.1-2.2 0.6 0.1 1.9 0.3 2.5 0.4 0.7-3.1 2.5-6.5 1.4-9.6-1.7-1.3-4-0.6-5.9-0.6z"
     stroke-width=".125"
     stroke="#d8d9d9" />
  <path
     id="path3358"
     fill="#ffffff"
     d="m349.7 200.5c3.6-6.4 10.1-10.8 15.6-15.5 1.7 4.9 3 9.9 3.6 15.1-0.3 1.9-1.3 3.7-2 5.5-0.9 0.3-1.9 0.6-2.9 0.9-5.2-0.9-9.6-3.8-14.3-6z"
     stroke-width=".125"
     stroke="#ffffff" />
  <path
     id="path3360"
     fill="#f1f2f2"
     d="m303.9 196.4c-3.2-1.9-5.7-7.1-2-9.8 1.9 0 4.2-0.7 5.9 0.6 1.1 3.1-0.7 6.5-1.4 9.6-0.6-0.1-1.9-0.3-2.5-0.4z"
     stroke-width=".125"
     stroke="#f1f2f2" />
  <path
     id="path3362"
     fill="#c4c5c5"
     d="m259.3 189c1.2 0.1 2.4 0.2 3.7 0.2-0.8 0.5-1.5 1-2.3 1.5 8.1 9.4 16.6 18.5 25.8 26.8 3.9 3.3 8.2 6.1 12 9.6 1-0.1 2-0.2 3.1-0.3 5.3-5.1 11-9.8 18-12.2l0.3 0.9c-3.1 1.8-6.4 3.4-9.6 5.1-1.6 0.6-1.6 2.6-2.1 3.9-2.8 2.2-6.2 3.7-9.8 3.8 0.5 1 1 2 1.4 3-15.2-11.7-29.5-24.8-41.9-39.5 0.3-0.7 1-2.1 1.4-2.8z"
     stroke-width=".125"
     stroke="#c4c5c5" />
  <path
     id="path3364"
     fill="#e4e5e5"
     d="m310.5 189.7c0.5 0 1.7-0.1 2.3-0.1 0.4 0.4 1.1 1.2 1.5 1.6 0 1-0.1 2.9-0.2 3.9-2.5-0.8-3.5-2.9-3.6-5.4z"
     stroke-width=".125"
     stroke="#e4e5e5" />
  <path
     id="path3366"
     fill="#ffffff"
     d="m199.9 193c3.7 3 7.3 6.4 10 10.3 0.8 1.9-1.4 2.6-2.6 3.5-2.5-4.6-6.5-8.6-7.4-13.8z"
     stroke-width=".125"
     stroke="#ffffff" />
  <path
     id="path3368"
     fill="#e4e5e5"
     d="m280.4 196.6c5.2 2.9 10.3 6.2 13.9 11-2.5 0.4-5.2 1.5-7.7 0.5-4.7-2-8.3-5.5-12-8.8 2.1 0.5 4.1 0.9 6.2 1.4-0.1-1.4-0.3-2.7-0.4-4.1z"
     stroke-width=".125"
     stroke="#e4e5e5" />
  <path
     id="path3370"
     fill="#d8d9d9"
     d="m209.2 210.2c3.2-2.6 6.5-5.2 9.7-7.9 4.4 11.3 15 18.6 24.8 25.1-1.5 1.8-2.7 3.7-3.9 5.7l0.8-2.4c-5.3-2.3-10.5-5-14.8-9 1.6-0.1 3.2-0.2 4.8-0.4-4.1-5.1-9.5-8.9-14.6-13-0.5 0.3-1.6 1-2.2 1.3-1.5 0.8-2.6 2.1-3.7 3.4-0.3-1-0.6-1.9-0.9-2.8z"
     stroke-width=".125"
     stroke="#d8d9d9" />
  <path
     id="path3372"
     fill="#e4e5e5"
     d="m468 213.2c17-2.5 33.9-6 51-7.7 1.9 0 3.9-0.4 5.8 0.1 4.1 3.6 6.6 8.5 9.6 13 20.5 32.4 39.7 65.6 59.5 98.5 22.8 38.5 46.3 76.7 68.1 115.9 2.2 4.1 4 8.5 5.4 12.9 0.7 2 0.4 4.2-0.3 6.2-2.5 8.6-6.2 16.9-9.9 25.1-1.7 3.8-4.5 7-8.1 9.2-6.7 4.2-14.2 6.9-21.6 9.4-21.5 7.4-43.4 13.1-65.3 19-41.6 11-83.4 21.2-125.2 31.5-86 21-172 42-258.1 63-14.8 3.5-29.7 7.5-44.9 9-2.9 0.4-5.9-0.5-8.4-1.9-3-2.1-3.4-6-3.5-9.3-0.1-10-0.2-20-1.2-29.9 19.7-3.4 39.2-8.3 58.7-12.7 33.5-7.7 67.1-15.2 100.4-23.9 21-4.3 41.7-9.8 62.1-16.4-4.9 0.5-9.6 1.7-14.4 2.6-12.5 1.9-24.9 4.9-37.2 7.9-41.3 9.1-82.4 18.6-123.5 28.3-8.7 2.1-17.6 4-26.2 6.4-6.5 1.9-13.5 2.6-19.6 5.8l-0.5 0.2c-0.9-7.8-3-15.5-4.8-23.2l-9.3-36.6c-2.5-12.7-6.7-24.9-9.5-37.5-4.8-19.6-9.7-39.1-14.5-58.6-2.1-4.6-2.3-9.8-4.2-14.4-2.6-7.7-4.1-15.8-6-23.8 3.7 3.3 8.5 5.1 13 6.9 5.9 0.9 10.5 4.9 16 6.8l-0.6 3.6c2.9 1.5 6.1 3.5 9.3 1.6 3.3 2.8 6.6 5.7 10.8 6.8 5 1.4 10.1-0.5 15.1-0.6 6.8-0.1 13.3-2.3 20-2.7 7-0.5 13.3-3.9 20.1-5.1 19.2-3.8 38.5-7.5 57.7-11.3 0.4 1.6 0.8 3.2 1.2 4.9 0.1 0.4 0.2 1.4 0.3 1.9l1.2-0.8c6.5-1.3 13.1 0 19.6 1.2 2.5 6.3 7.2 12.7 14.3 13.9 7.8 1.1 17.4 0 22-7.2 1.5-2.1 3.1-4.2 3.9-6.7 0.6-2.6 0.3-5.3 0.2-8 6-11.5-2.4-27.8-15.5-29.4-6.9-0.7-14.4 1.2-19.5 6.2-2.2 1.8-4.7 3.3-7.5 3.9-20.7 4.2-41.4 7.9-62.1 11.9-9.1 1.4-18 3.9-27.2 4.9 0.1-2.9 0.2-5.7 0.3-8.6-0.6 0.2-1.9 0.6-2.5 0.7-0.1 0.3-0.4 1-0.6 1.3-1.5 6.1-9.3 8.1-14.6 6 1.4-4.6 1.9-9.4 2-14.3 7.7 2.1 16.1 3.6 23.6 0.2 8.3-3.4 12.1-12.7 12.9-21.2 0.1-3.7 1.4-8.3-1.9-11-0.1 1.1-0.1 3.1-0.2 4.2-0.2-1.4-0.5-2.9-0.8-4.3l-2.7 5.1c-0.3-2.1-0.6-4.3-0.9-6.4-0.1 3.3-0.3 6.6-1 9.8-0.4-4.5 0.1-9-1-13.4l0.8 2c6.3 2.6 12.2 6.3 19.1 7.1 7.3 0.9 16.1 0.2 20.8-6.3 6.4-8 5.3-19 4.7-28.6 8.2 3.5 17.3 6.7 26.3 4.3 6.3-1.5 10.4-7.5 11.4-13.7 1.4-7.9 0.6-15.9-0.9-23.7 9.1 4.8 19.3 9.4 29.9 6.9 5-1.6 8.6-6.2 9.4-11.3 1.5-9 0.6-18.3-1.8-27.1 0.4-1.2 0.8-2.5 1.2-3.8 0 2.7 2.8 3.4 4.6 4.7 8.3 5.1 18.3 9.1 28.1 6.3 6-2.5 7.7-9.4 7.8-15.2 43.1-6.7 86.2-13.6 129.3-20.5z"
     stroke-width=".125"
     stroke="#e4e5e5" />
  <path
     id="path3374"
     fill="#f1f2f2"
     d="m149.9 210.7c4.9-2.7 9.7 1.3 13.7 3.9 5.1 4.2 10.2 8.5 14.4 13.6-0.8 0.5-1.6 1.1-2.4 1.6-4.4-4.6-8.7-9.4-14-13.1-2.3-1.6-5-2.6-7.8-2.4-0.7 9.4 4.6 17.8 9.4 25.4 7.2 8.5 13.3 17.9 21.3 25.8 3.1 2.8 5.3 6.5 8.5 9.3 4.1 3.7 8.1 7.5 12.9 10.4 7.2 5.5 14.3 11.5 22.8 15.1 5.3 2.2 11.3 2.7 17 2.1 3.6-0.7 5.9-4 6.8-7.5 1.4-5.6 0.7-11.6 0.5-17.3 0.3 0 0.9 0.1 1.2 0.2 0.4 1.5 0.8 3 1.1 4.5 0.8-1.3 1.7-2.6 2.5-3.8 1.2 5.7 1.9 11.7-0.1 17.3-2.1 7.5-10.1 12.6-17.8 11.5-4-0.7-8.1-1.6-11.9-3.3-10.2-4.5-20-10.2-28.6-17.4-5.6-6-12-11.3-18.1-16.9-8.1-9-16.4-18.2-21.9-29.1-4.4-7.2-8.9-14.6-11.1-22.8-0.8-2.6 0.3-5 1.6-7.1z"
     stroke-width=".125"
     stroke="#f1f2f2" />
  <path
     id="path3376"
     fill="#c4c5c5"
     d="m213.8 209.6c0.6-0.3 1.7-1 2.2-1.3 5.1 4.1 10.5 7.9 14.6 13-1.6 0.2-3.2 0.3-4.8 0.4-2-1.5-4.2-2.7-6.4-3.8-0.2-2.8-0.4-5.7-2.2-8-0.8 0-2.5-0.2-3.4-0.3z"
     stroke-width=".125"
     stroke="#c4c5c5" />
  <path
     id="path3378"
     fill="#e4e5e5"
     d="m328.4 212.8c1.2-0.6 2.4-1.3 3.7-1.9 0.7 1.9 1.2 3.8 1.8 5.7-0.4 1.5-0.9 2.9-1.3 4.4-1-2-1.9-4-2.9-6v2.1c-0.5-1.4-0.9-2.9-1.3-4.3z"
     stroke-width=".125"
     stroke="#e4e5e5" />
  <path
     id="path3380"
     fill="#e4e5e5"
     d="m212.4 212.6c1.6 0.4 3.2 0.7 4.8 1.3 0.1 1.4-0.1 2.9-0.2 4.3-2.4-1-3.9-3.2-4.6-5.6z"
     stroke-width=".125"
     stroke="#e4e5e5" />
  <path
     id="path3382"
     fill="#ffffff"
     d="m325.7 215.5c0.2 0.2 0.7 0.6 0.9 0.8 1.1 5 2.7 10 2.4 15.3-6 0.9-12 2.2-18.1 2.4-1.2-0.8-2.4-1.6-3.4-2.5-0.3-1.4 1.4-1.8 2.2-2.7 5.8-3.9 10.6-9 16-13.3z"
     stroke-width=".125"
     stroke="#ffffff" />
  <path
     id="path3384"
     fill="#c4c5c5"
     d="m199 217.6c1.3-0.6 2.6-1.3 3.9-2 0.2 1.2 0.3 2.4 0.4 3.5-3.9 2.3-7.3 5.5-9.7 9.4-0.7 1.4-1.9 3-0.4 4.3 2.5 1.9 5.6-0.2 8.1-1.1-2.2 2.6-6.2 4.2-9.2 2.1-0.3-1.9-0.6-3.8-0.7-5.8 1.2-3.5 4.1-6 6.6-8.6 0.1-0.1 0.2-0.3 0.3-0.4 0.2-0.4 0.6-1 0.7-1.4z"
     stroke-width=".125"
     stroke="#c4c5c5" />
  <path
     id="path3386"
     fill="#b9b9b9"
     d="m243.7 227.4c5.5-5.1 12.4-10.3 20.3-9.6 2.7 0.1 4.9 2.2 5.7 4.6 2.3 4.8-0.8 9.9-3.8 13.6-3.9 5.2-9.8 8.3-15.9 10.1-3.3 0.7-7.6 0.7-9.6-2.5-2.4-3.1-2-7.2-0.6-10.5 1.2-2 2.4-3.9 3.9-5.7z"
     stroke-width=".125"
     stroke="#b9b9b9" />
  <path
     id="path3388"
     fill="#ffffff"
     d="m156.1 218.1c6.4 3.3 11.3 8.8 16.2 13.9-2 1.9-4.1 3.9-6 6-3.9-6.4-8.2-12.6-10.2-19.9z"
     stroke-width=".125"
     stroke="#ffffff" />
  <path
     id="path3390"
     fill="#f1f2f2"
     d="m193.6 228.5c2.4-3.9 5.8-7.1 9.7-9.4 1.9 2.5 3.7 4.8 5.6 7.2-2.4 2.1-4.9 3.9-7.6 5.4-2.5 0.9-5.6 3-8.1 1.1-1.5-1.3-0.3-2.9 0.4-4.3z"
     stroke-width=".125"
     stroke="#f1f2f2" />
  <path
     id="path3392"
     fill="#c4c5c5"
     d="m215 222.4c0.6-0.8 1.3-1.5 1.9-2.3l0.6 0.7c12.5 14.7 25.6 29.5 42.6 39 0.4-0.2 1.1-0.6 1.5-0.8v2.7c-1-0.5-2.1-1-3.1-1.5 0 0.8 0.2 2.2 0.3 2.9-16.4-11.5-31.1-25.3-43.8-40.7z"
     stroke-width=".125"
     stroke="#c4c5c5" />
  <path
     id="path3394"
     fill="#f1f2f2"
     d="m255.5 223.7c3.4-1.3 6.9-1.5 10.4-1.4 0.9 0.5 1.8 1.1 2.7 1.6 0.7 3.4-0.6 6.8-3.4 8.9-6.4 2.7-13 7.3-20.3 5.5-1.2-1.9-0.7-4.3-0.7-6.5v-0.3c2.7-1.9 5.4-3.8 7.8-6.1 0.3 0.1 1.1 0.2 1.4 0.2l0.2-1.2c0.5 0 1.4 0.2 1.9 0.3v-1z"
     stroke-width=".125"
     stroke="#f1f2f2" />
  <path
     id="path3396"
     fill="#d8d9d9"
     d="m177.7 231.8c1.7-1.1 3.5-2.1 5.4-2.8-0.4 0.5-1.3 1.5-1.7 2 2.7 3.3 5.3 6.8 8.2 9.9-0.5 0.2-1.7 0.6-2.2 0.8-1.5-1.6-2.7-3.3-4-5.1-0.4 0.7-1.3 1.9-1.7 2.5-1.5-2.3-2.8-4.8-4-7.3z"
     stroke-width=".125"
     stroke="#d8d9d9" />
  <path
     id="path3398"
     fill="#f1f2f2"
     d="m493.5 230.3c1.6 0.1 3.2 0.3 4.7 0.4 0.2 0.9 0.4 1.9 0.6 2.9-1.9 0-3.9 0.1-5.8-0.1 0.1-0.8 0.4-2.4 0.5-3.2z"
     stroke-width=".125"
     stroke="#f1f2f2" />
  <path
     id="path3400"
     fill="#c4c5c5"
     d="m174 235.6c1.1-1.4 2.3-2.6 3.7-3.8 1.2 2.5 2.5 5 4 7.3 0.4-0.6 1.3-1.8 1.7-2.5 1.3 1.8 2.5 3.5 4 5.1 0.5-0.2 1.7-0.6 2.2-0.8 0.3-0.1 0.7-0.2 0.9-0.3 0 0.2-0.1 0.5-0.1 0.7-0.2 0.6-0.5 2-0.6 2.7 1.3 3.1 2.3 6.4 3 9.7-1.8-1.4-3.6-2.7-5.3-4.1-3.8-4.6-7.7-9.2-11.1-14.1-0.6 0-1.8 0.1-2.4 0.1z"
     stroke-width=".125"
     stroke="#c4c5c5" />
  <path
     id="path3402"
     fill="#d8d9d9"
     d="m240.9 240c-1-3.2 1.3-6 3.3-8.2 0 2.2-0.5 4.6 0.7 6.5 7.3 1.8 13.9-2.8 20.3-5.5-3.2 3.7-7.8 5.9-12.1 8.1-3.7 2-9.2 2.7-12.2-0.9z"
     stroke-width=".125"
     stroke="#d8d9d9" />
  <path
     id="path3404"
     fill="#c4c5c5"
     d="m474.2 234.2c3.2-0.8 6.5-0.7 9.8-1.4 3-0.8 6 0.5 9 0.7 1.9 0.2 3.9 0.1 5.8 0.1 2.9-0.2 5.8 0 8.7 0.7l-1.6 1c-0.5 0.3-1.1 0.7-1.6 1-1.5 6-3 12-3.8 18.1-2.7-1.8-5.4-3.8-8.5-5-4.1 0.2-8 1.8-12 2.1-24.9 2.3-49.6 6.4-74.2 10.6-17.9 3.3-35.9 6.4-53.5 11.2-4.3 1.1-8.4 2.8-12 5.6 0.1 0.5 0.3 1.6 0.4 2.1-2.3-6-2.3-12.6-2.1-18.9-1 0.3-1.9 0.6-2.8 0.9 4.3-6.1 12.2-7.9 19-9.7 23.1-6.4 46.9-8.7 70.2-13.8 16.4-2.2 32.6-5.8 49.2-5.3z"
     stroke-width=".125"
     stroke="#c4c5c5" />
  <path
     id="path3406"
     fill="#c4c5c5"
     d="m320.5 238.2c0.6-2.9 3.6-3 6-3.3-0.9 2.7-3.4 3.3-6 3.3z"
     stroke-width=".125"
     stroke="#c4c5c5" />
  <path
     id="path3408"
     fill="#b9b9b9"
     d="m504.3 236.3c0.5-0.3 1.1-0.7 1.6-1l1.4-0.2c-2.4 7-3.7 14.3-4.3 21.7-0.8-0.8-1.6-1.6-2.5-2.4 0.8-6.1 2.3-12.1 3.8-18.1z"
     stroke-width=".125"
     stroke="#b9b9b9" />
  <path
     id="path3410"
     fill="#f1f2f2"
     d="m168.4 240.8c1.6-1.9 3.6-3.5 5.6-5.2 0.6 0 1.8-0.1 2.4-0.1 3.4 4.9 7.3 9.5 11.1 14.1 2.6 5 7.7 9.2 7.2 15.2-1.7 1-3.4 2.2-4.4 4-5.1-6.6-11.2-12.3-16.1-19.1-1.9-3-4.9-5.4-5.8-8.9z"
     stroke-width=".125"
     stroke="#f1f2f2" />
  <path
     id="path3412"
     fill="#c4c5c5"
     d="m507.3 235.1c2.2 1.7 4.5 3.3 6.2 5.6-1.6-0.8-3.2-1.5-4.8-2.2 0.8 2.2 0.7 5.2 2.9 6.6 1.7 1.2 3.8 1.9 5 3.7-1 2.5-2.1 5-2.4 7.7 4 2 8.4 3.5 11.2 7.2 3.3 4.1 6.2 8.6 9 13.1 0.8 1.3 2.2 2.3 3.6 3l0.4 0.2c7.3 12 14.1 24.3 21.2 36.5 15.2 27.1 31.5 53.6 45.5 81.4 3.5 6.7 7.6 14.1 5.8 21.9-0.4-0.3-1.4-1.1-1.8-1.4-3.7 2.4-6.7 5.8-10.7 7.7-3-9.5-8.1-18.1-12.3-27-14.3-26-28.9-51.8-43.6-77.5-4.3-6.5-7.9-13.3-11.5-20.2 0.5 0.1 1.4 0.3 1.8 0.4-6.2-13.4-14.6-25.6-20.9-38.9-1.3-2.8-3.9-4.7-6.5-6.2l0.3 3.6c-0.9-1.2-1.8-2.4-2.7-3.5 0.6-7.4 1.9-14.7 4.3-21.7z"
     stroke-width=".125"
     stroke="#c4c5c5" />
  <path
     id="path3414"
     fill="#f1f2f2"
     d="m109.8 239.7c6.7-3.8 13.7 1.6 18.9 5.5 4.7 4.1 10.2 7.6 13.4 13.1-0.7 0.1-2.1 0.3-2.8 0.4-5.7-5.7-11.3-11.8-18.7-15.4-2-1.2-4.5-0.6-6.8-0.7-1.2 10.1 3.6 19.6 8.8 27.8 2.7 3 4.9 6.5 7.3 9.8 5.2 6.1 9.8 12.7 15.6 18.3 2.4 2.2 4.6 4.6 6.9 6.9 6.8 6.6 14.4 12.4 22.4 17.6 8.7 6.2 19.2 11.2 30.2 9.6 5.5-0.2 8.9-5.5 9.8-10.5 1.2-6.9 0.9-14.1-0.5-21 2 1.2 4 3.3 6.5 2.3-0.3 1.1-0.9 2.2-0.6 3.4 1 6.8 1.6 14.2-1.6 20.6-2.6 5.2-7.8 8.8-13.5 10-8.1 0.7-16-2.2-23.3-5.4-8-4.5-16.2-8.7-23.2-14.6-1.5-0.9-2.6-2.9-4.6-2.4 0.1 0.3 0.1 0.9 0.1 1.2 5.1 4.1 9.6 9.3 15.7 11.9-7.2 4-13.2 9.8-19.7 14.7-4.6 3-9.8 4.9-14.5 7.8-4.5-4-10.1-6.5-14.7-10.4-8-6.6-15.4-14.1-22.1-22-0.8-1.1-2-1.7-3.2-2.4 3.8-1 5.5-4.9 7.3-8 1.5-2.8 1.5-5.9 0.4-8.7 0.5 0.2 1.4 0.5 1.9 0.7 0.2 1.8 0.3 3.5 0.7 5.3 1.3 1.2 2.8 2 4.3 3 4.6 3.9 9.7 7 15.1 9.6-1.5 3.2-3.9 6.5-3.2 10.3 0.9 2.7 2.6 5.8 5.9 6.2 6.6 1.3 12.9-2.2 17.8-6.3 3.7-3.1 5.8-7.5 7.8-11.8-0.6-0.2-1.7-0.5-2.2-0.7-0.2 0.7-0.5 2-0.7 2.6-3.5 2-7.6 2.6-11.5 1.5 0.2-1.8 0.3-3.7 0.7-5.4 1.4-2.4 4.3-3 6.7-3.8 1.8 1.4 3.4 3.1 4.5 5.1 0.9-0.6 0.9-1.9 2-2.3l0.2-0.6c-3.5-4.1-8.5-6.8-12-10.9-8.6-9.6-17.5-19.4-23-31.1-4.5-7.4-8.8-15-10.4-23.5-0.7-2.6 0.9-5 1.9-7.3z"
     stroke-width=".125"
     stroke="#f1f2f2" />
  <path
     id="path3416"
     fill="#e4e5e5"
     d="m290.1 241.7c0.8-0.9 1.6-1.8 2.6-2.5 0.8 1.7 1.7 3.4 2 5.3-0.1 2-0.4 4-0.6 6l-2.1-3.6c-0.3-0.1-0.8-0.2-1-0.3l-0.5-0.1c-0.3-1.7-0.7-3.5-1.1-5.2l0.7 0.4z"
     stroke-width=".125"
     stroke="#e4e5e5" />
  <path
     id="path3418"
     fill="#b9b9b9"
     d="m508.7 238.5c1.6 0.7 3.2 1.4 4.8 2.2 6.6 8.4 12 17.8 17.6 26.9 2.4 4 5 7.9 6.9 12.2-1.4-0.7-2.8-1.7-3.6-3-2.8-4.5-5.7-9-9-13.1-2.8-3.7-7.2-5.2-11.2-7.2 0.3-2.7 1.4-5.2 2.4-7.7-1.2-1.8-3.3-2.5-5-3.7-2.2-1.4-2.1-4.4-2.9-6.6z"
     stroke-width=".125"
     stroke="#b9b9b9" />
  <path
     id="path3420"
     fill="#d8d9d9"
     d="m189.8 244c0.1-0.7 0.4-2.1 0.6-2.7 1.2 2.4 2.6 4.7 3.9 7.1 1.5 4.4 3.2 8.7 4.6 13.1 1.4 0.2 2.8 0.5 4.2 0.7 1 0.2 2 0.3 3 0.5-3.9-0.1-7.9 0.2-11.4 2.1 0.5-6-4.6-10.2-7.2-15.2 1.7 1.4 3.5 2.7 5.3 4.1-0.7-3.3-1.7-6.6-3-9.7z"
     stroke-width=".125"
     stroke="#d8d9d9" />
  <path
     id="path3422"
     fill="#e4e5e5"
     d="m264.9 262.1c7.3-6 14.5-12.1 22.5-17 1.2 6 3.7 12.5 1.1 18.5-1.1 3.4-4.9 5.2-8.3 4.6-5.4-1.1-10.5-3.3-15.3-6.1z"
     stroke-width=".125"
     stroke="#e4e5e5" />
  <path
     id="path3424"
     fill="#ffffff"
     d="m116 245.8c7.8 3.1 14.2 8.9 20 14.9-1.1 1.7-2.5 3.1-4.3 3.9-2.6 0.2-5.1 0.6-7.6 1.1-3.8-6-7.9-12.6-8.1-19.9z"
     stroke-width=".125"
     stroke="#ffffff" />
  <path
     id="path3426"
     fill="#f1f2f2"
     d="m152.9 253.8c2.5-2.2 5-4.3 7.9-5.9 4.6 7 10.2 13.3 15.8 19.6 2.3 2.2 4.2 5 7.3 6.3-2 2.3-4 5-4.1 8.2-0.3 4.2 2.5 9.1 7.2 8.8 3.5 0.1 9.3-0.2 10-4.6 3 4.5 7.6 7.4 11.7 10.7 0.6 1.8-1.2 2.7-2.3 3.6-1.9 1.6-4 2.8-6.2 3.8-1.9 0.6-3.8 1.4-5.7 2.3-4.2 3-8.3 6-12.4 9.2-1.8 1.5-3.5 3.1-5.1 4.8-4.5-3.1-9.4-5.6-13.6-9-3-2.4-5.8-5-8.8-7.5-10.3-9.7-19.6-20.4-27.4-32.2 4.8-2.5 9.2-5.7 13.6-9-3.8 4.4-8.2 9-8.3 15.2 1 1.5 2 3 3 4.6 4.5-0.5 8.5-2.7 12.4-4.8 3.3 2.8 5.8 6.3 8.9 9.4 3.6 3 7.4 5.7 11.3 8.4 2.3 1.8 5.4 1.8 8.2 2-0.5-1.4-0.7-3-1.9-4.1-4.3-4.4-9.8-7.4-14.3-11.6-2.6-2.3-5.3-4.6-8.2-6.6l-0.4-0.4c3.5-4.1 7.8-7.8 9.3-13.2 1.1-2.6-0.5-5.1-1.6-7.4-3.4-0.5-6.6 0.4-9.2 2.7 1-1.1 2-2.2 2.9-3.3z"
     stroke-width=".125"
     stroke="#f1f2f2" />
  <path
     id="path3428"
     fill="#e4e5e5"
     d="m194.3 248.4c3.5 4.2 6.5 8.8 8.8 13.8-1.4-0.2-2.8-0.5-4.2-0.7-1.4-4.4-3.1-8.7-4.6-13.1z"
     stroke-width=".125"
     stroke="#e4e5e5" />
  <path
     id="path3430"
     fill="#e4e5e5"
     d="m480 251.5c4-0.3 7.9-1.9 12-2.1 3.1 1.2 5.8 3.2 8.5 5 0.9 0.8 1.7 1.6 2.5 2.4 0.9 1.1 1.8 2.3 2.7 3.5 3.2 5.4 7.2 10.2 10.4 15.5 5.1 8.4 10.2 16.9 14.9 25.6 3.6 6.9 7.2 13.7 11.5 20.2 14.7 25.7 29.3 51.5 43.6 77.5 4.2 8.9 9.3 17.5 12.3 27-0.8 0.2-2.3 0.6-3.1 0.8-4.4-11.7-11.1-22.3-16.9-33.3-22.3-39.9-44.6-79.9-67.1-119.7-3.6-6.7-7.3-14.9-15.3-17.2-12.7-1.8-25.4 1.1-38 2.4-26.6 3.7-53.1 8.2-79.3 13.6-12.5 2.9-26 4.1-36.7 11.9-0.5-1.2-0.9-2.4-1.3-3.6-0.1-0.5-0.3-1.6-0.4-2.1 3.6-2.8 7.7-4.5 12-5.6 17.6-4.8 35.6-7.9 53.5-11.2 24.6-4.2 49.3-8.3 74.2-10.6z"
     stroke-width=".125"
     stroke="#e4e5e5" />
  <path
     id="path3432"
     fill="#c4c5c5"
     d="m458 259.1c12.6-1.3 25.3-4.2 38-2.4 8 2.3 11.7 10.5 15.3 17.2 22.5 39.8 44.8 79.8 67.1 119.7 5.8 11 12.5 21.6 16.9 33.3-2.9 0.7-5.6 1.8-8.4 3-1.6-5-4.5-9.4-7-14-17.7-32-35.3-63.9-53-95.9-6.3-10.9-12.2-22.1-19.4-32.6-4.1-6.5-8.6-14-16.4-16.5-6.6-1.4-13.4-0.5-20.1-0.6-9.8-0.1-19.4 2.3-29.2 2.3 0.9 0.2 2.5 0.5 3.3 0.6-13.9 1.2-27.7 3.8-41.4 6.3-14.7 2.6-29.4 5.2-43.9 8.6-5 1.3-10.3 1.3-15 3.4-0.9-2.4-1.9-4.7-2.8-6.9 10.7-7.8 24.2-9 36.7-11.9 26.2-5.4 52.7-9.9 79.3-13.6z"
     stroke-width=".125"
     stroke="#c4c5c5" />
  <path
     id="path3434"
     fill="#b9b9b9"
     d="m505.4 256.7c2.6 1.5 5.2 3.4 6.5 6.2 6.3 13.3 14.7 25.5 20.9 38.9-0.4-0.1-1.3-0.3-1.8-0.4-4.7-8.7-9.8-17.2-14.9-25.6-3.2-5.3-7.2-10.1-10.4-15.5l-0.3-3.6z"
     stroke-width=".125"
     stroke="#b9b9b9" />
  <path
     id="path3436"
     fill="#f1f2f2"
     d="m151.5 258.3c0.7 0.1 2.2 0.2 2.9 0.2l0.2-1.3c1.4 0.3 2.8 0.7 4.1 1.1 0.2 1.6 0.3 3.4-0.6 4.8-2.6 4.3-6.7 7.4-10.6 10.3-3.5 2.6-7.4 4.6-11.7 5.2l-1.2-2.7c1.3-4.6 4.9-7.8 8.3-10.9 1.2-1 2.4-1.9 3.6-2.8l-0.1-0.6c1.1-0.4 2.2-0.8 3.3-1.2l-0.3-1.2c0.6 0.1 1.6 0.4 2.1 0.6v-1.5z"
     stroke-width=".125"
     stroke="#f1f2f2" />
  <path
     id="path3438"
     fill="#b9b9b9"
     d="m335.8 263c0.9-0.3 1.8-0.6 2.8-0.9-0.2 6.3-0.2 12.9 2.1 18.9 0.4 1.2 0.8 2.4 1.3 3.6 0.9 2.2 1.9 4.5 2.8 6.9 9.3 23.2 20.1 45.8 30.1 68.7 9 19.7 17.3 39.6 26.8 59.1 3.3 8.3 8 16 12.2 23.9 3.6 5.9 7.5 12.5 14.4 15.1 10.2 3.8 21.2 1.3 31.7 0.1 32.5-5.3 64.6-12.3 96.5-20.2 10.2-2.6 20.5-4.8 30.4-8.3 2.8-1.2 5.5-2.3 8.4-3 0.8-0.2 2.3-0.6 3.1-0.8 4-1.9 7-5.3 10.7-7.7 0.4 0.3 1.4 1.1 1.8 1.4-5.3 8.6-15.7 11.2-24.8 14.1-1.1 0.3-2.1 0.6-3.2 0.9l-0.8 0.4c-3.4 0.9-6.8 1.8-10.2 2.6l-0.8 0.4c-22.6 5.7-45.2 11.2-68 15.8-18 3.6-35.9 7.4-54.1 9.4-6 0.3-12.1 0.8-18-0.4-7.1-1.6-12.1-7.4-15.8-13.2-11.4-18.8-19.9-39.1-29-59-12.2-27.5-24.5-54.9-36.6-82.4-4.7-11.1-9.7-22.2-13-33.9-1-3.7-1.7-7.6-0.8-11.5z"
     stroke-width=".125"
     stroke="#b9b9b9" />
  <path
     id="path3440"
     fill="#b9b9b9"
     d="m495.3 263.1c0.8 0.3 1.5 0.6 2.3 0.9l-1.2 3.6h-2.2c0.4-1.5 0.7-3 1.1-4.5z"
     stroke-width=".125"
     stroke="#b9b9b9" />
  <path
     id="path3442"
     fill="#f1f2f2"
     d="m73.3 266.5c2.8-0.1 5.8-0.6 8.4 0.8 8.6 3.9 16 9.9 22.9 16.2 1 0.8 2.2 1.2 3.4 1.8-2.7-0.4-4.3 1.4-5.5 3.5 0.2-1.3-0.1-2.4-1.1-3.2-5.3-5.9-11.6-10.8-18.5-14.7-2.4-0.6-5-0.6-7.4-0.4-3.5 7-0.3 14.9 2.4 21.5 2.3 4.6 4.4 9.4 8 13.1 4.2 8.1 11.1 14.3 16.8 21.2 4.5 5.5 10.3 9.7 15.4 14.7 9.8 7.7 19.9 15.7 31.9 19.9 5.5 2.2 11.4 1.8 17.1 1.4 2.6-1.4 5.6-2.5 7.2-5.1 2.4-3.4 3.4-7.6 4-11.7 0.7-3.2 0.9-6.5 1-9.8 0.3 2.1 0.6 4.3 0.9 6.4l2.7-5.1c0.3 1.4 0.6 2.9 0.8 4.3 0.4 6.6-0.9 13.8-5.5 18.8-2 2.3-4.4 3.9-6.9 5.4-2.5 0.7-4.9 1.2-7.3 1.9-10.7-0.3-21.2-3.9-30-9.8-0.8 0.6-1.3 2.6-2.6 2.1-0.4-1.1 0.5-2 0.9-3-7.1-3.1-13-8.2-19-13-9.6-8.4-18.7-17.5-25.8-28.1-1.9-2.8-4.2-5.3-6-8.2-5-10.2-11.8-19.9-13.4-31.3-0.6-4.1 2.3-7.3 5.2-9.6z"
     stroke-width=".125"
     stroke="#f1f2f2" />
  <path
     id="path3444"
     fill="#d8d9d9"
     d="m196.7 268.3c3.5-1.5 7.9-3.1 11.3-0.6-0.9-0.2-2.6-0.5-3.4-0.7-0.4 3-0.8 6.1-1.2 9.2 0.7 0.3 2 1 2.6 1.3-0.6 0.5-1.3 0.9-1.9 1.4-1.3-0.9-2.6-1.7-3.8-2.6 0-2.6 0.1-5.2 0.2-7.8-0.8 0-1.6-0.1-2.4-0.1l-1.4-0.1z"
     stroke-width=".125"
     stroke="#d8d9d9" />
  <path
     id="path3446"
     fill="#e4e5e5"
     d="m254.3 266.4c0.3 1.2 0.5 2.3 0.6 3.5l1.9-0.6c-0.9 3 0.4 5.9 1.2 8.8l-0.2 0.4c-0.8 1.2-1.7 2.5-2.5 3.8-0.3-1.5-0.7-3-1.1-4.5-0.3-0.1-0.9-0.2-1.2-0.2l-0.3-0.1-1.2-5.7 3.2-1.6c-0.6-0.6-1.1-1.1-1.6-1.7l1.2-2.1z"
     stroke-width=".125"
     stroke="#e4e5e5" />
  <path
     id="path3448"
     fill="#f1f2f2"
     d="m198.1 268.4c0.8 0 1.6 0.1 2.4 0.1-0.1 2.6-0.2 5.2-0.2 7.8-1.7-1.3-3.3-2.6-4.9-4-0.1-0.9-0.1-1.8-0.2-2.7 0.7-0.3 2.2-0.9 2.9-1.2z"
     stroke-width=".125"
     stroke="#f1f2f2" />
  <path
     id="path3450"
     fill="#f1f2f2"
     d="m204.6 267c0.8 0.2 2.5 0.5 3.4 0.7 3.1 3 0.5 7.4-2 9.8-0.6-0.3-1.9-1-2.6-1.3 0.4-3.1 0.8-6.2 1.2-9.2z"
     stroke-width=".125"
     stroke="#f1f2f2" />
  <path
     id="path3452"
     fill="#e4e5e5"
     d="m100.2 273.2c4.7-1.2 9.5-1.7 14.4-2 0.5 1.2 1.1 2.5 1.6 3.7-2.6 2.1-4.8 4.5-7.4 6.6-2 0.6-3-1.9-4.4-2.8-1.3-1.8-4.2-3.1-4.2-5.5z"
     stroke-width=".125"
     stroke="#e4e5e5" />
  <path
     id="path3454"
     fill="#e4e5e5"
     d="m441.8 272.6c9.8 0 19.4-2.4 29.2-2.3 6.7 0.1 13.5-0.8 20.1 0.6 7.8 2.5 12.3 10 16.4 16.5 7.2 10.5 13.1 21.7 19.4 32.6 17.7 32 35.3 63.9 53 95.9 2.5 4.6 5.4 9 7 14-9.9 3.5-20.2 5.7-30.4 8.3-31.9 7.9-64 14.9-96.5 20.2-10.5 1.2-21.5 3.7-31.7-0.1-6.9-2.6-10.8-9.2-14.4-15.1-4.2-7.9-8.9-15.6-12.2-23.9-9.5-19.5-17.8-39.4-26.8-59.1-10-22.9-20.8-45.5-30.1-68.7 4.7-2.1 10-2.1 15-3.4 14.5-3.4 29.2-6 43.9-8.6 13.7-2.5 27.5-5.1 41.4-6.3-0.8-0.1-2.4-0.4-3.3-0.6z"
     stroke-width=".125"
     stroke="#e4e5e5" />
  <path
     id="path3456"
     fill="#c4c5c5"
     d="m231.8 281.1c2.1-2.4 3.8-5.2 6.3-7.3 0.7 0.4 2 1.2 2.7 1.6-2.8 2.2-5.1 5.6-9 5.7z"
     stroke-width=".125"
     stroke="#c4c5c5" />
  <path
     id="path3458"
     fill="#d8d9d9"
     d="m147.3 277.4c1.5-0.7 2.9-1.5 4.2-2.4l0.4 0.4c3.5 4.3 7.6 8 11 12.3-2 0.1-4.1 0.1-6.1-0.4-3.1-3.1-5.6-6.6-8.9-9.4l-0.6-0.5z"
     stroke-width=".125"
     stroke="#d8d9d9" />
  <path
     id="path3460"
     fill="#e4e5e5"
     d="m224.1 292.2c8.1-6.4 16.8-11.8 25.5-17.2 1.3 6.2 2.9 13.3-0.4 19.2-1.6 3.4-5.6 4.9-9.2 4.4-5.6-0.4-11-2.8-15.7-5.6l-0.2-0.8z"
     stroke-width=".125"
     stroke="#e4e5e5" />
  <path
     id="path3462"
     fill="#e4e5e5"
     d="m76.3 276.7c3.1-0.1 6.5-1.2 9.3 0.7 5.2 3.2 9.8 7.2 14.2 11.5-4.3 3.8-8.9 7.2-13.3 10.8-4.5-7.1-8.8-14.6-10.2-23z"
     stroke-width=".125"
     stroke="#e4e5e5" />
  <path
     id="path3464"
     fill="#f1f2f2"
     d="m116.8 279.8c1.4-0.9 2.1-2.3 2.7-3.8-0.1 3.3 2.6 5.5 4.3 8.1 5.8 8 12.9 15 19.4 22.5-5.5 1.5-10.6 4.2-14.7 8.1-5.4-2.4-8.8-7.4-13.3-10.9-4.1-4.4-8.2-9.7-7.9-16 3.6-2.2 6.2-5.5 9.5-8z"
     stroke-width=".125"
     stroke="#f1f2f2" />
  <path
     id="path3466"
     fill="#e4e5e5"
     d="m151.9 275.4c2.9 2 5.6 4.3 8.2 6.6 4.5 4.2 10 7.2 14.3 11.6 1.2 1.1 1.4 2.7 1.9 4.1-2.8-0.2-5.9-0.2-8.2-2-3.9-2.7-7.7-5.4-11.3-8.4 2 0.5 4.1 0.5 6.1 0.4-3.4-4.3-7.5-8-11-12.3z"
     stroke-width=".125"
     stroke="#e4e5e5" />
  <path
     id="path3468"
     fill="#d8d9d9"
     d="m182.4 284.7c-0.8-2.6-0.2-5.7 2.4-7.1 2.7 3 6.5 5.1 8.4 8.9-3.5-0.1-8.3 1.5-10.8-1.8z"
     stroke-width=".125"
     stroke="#d8d9d9" />
  <path
     id="path3470"
     fill="#e4e5e5"
     d="m45.5 281.7c6.7-0.9 13.5-1.9 20.2-3.3 1.4 10.3 6.6 19.3 11.3 28.4-1.2 1.3-2.5 2.3-4 3.2-4.4-3.2-7.9-7.6-12.4-10.7-3.7-3.1-8.1-5.2-12.2-7.7-1-1.7-1.5-3.5-2.2-5.3-0.2 1.6-0.4 3.3-0.7 5-0.3-3.2-0.1-6.4 0-9.6z"
     stroke-width=".125"
     stroke="#e4e5e5" />
  <path
     id="path3472"
     fill="#d8d9d9"
     d="m104.7 289.8c0.8-0.7 1.7-1.3 2.6-2-0.3 6.3 3.8 11.6 7.9 16 4.5 3.5 7.9 8.5 13.3 10.9-1.1 1-2.1 2-3.2 3-5.4-2.6-10.5-5.7-15.1-9.6 3.2 0.4 6.2 1.9 8.9 3.6-5.2-5.2-9.5-11.3-14.9-16.4 0.2-1.9 0.3-3.7 0.5-5.5z"
     stroke-width=".125"
     stroke="#d8d9d9" />
  <path
     id="path3474"
     fill="#c4c5c5"
     d="m102.7 292c0.6-0.8 1.3-1.5 2-2.2-0.2 1.8-0.3 3.6-0.5 5.5 5.4 5.1 9.7 11.2 14.9 16.4-2.7-1.7-5.7-3.2-8.9-3.6-1.5-1-3-1.8-4.3-3-0.4-1.8-0.5-3.5-0.7-5.3-0.5-0.2-1.4-0.5-1.9-0.7-1.2-0.4-2.3-0.9-3.5-1.3 0.7-0.1 2-0.4 2.7-0.6 0.1-1.7 0.1-3.5 0.2-5.2z"
     stroke-width=".125"
     stroke="#c4c5c5" />
  <path
     id="path3476"
     fill="#e4e5e5"
     d="m94 298.5c2.9-2.1 5.7-4.5 8.7-6.5-0.1 1.7-0.1 3.5-0.2 5.2-0.7 0.2-2 0.5-2.7 0.6l-1.7 0.4c-1.1 0.2-2.3 0.5-3.5 0.6-0.2 0-0.5-0.2-0.6-0.3z"
     stroke-width=".125"
     stroke="#e4e5e5" />
  <path
     id="path3478"
     fill="#f1f2f2"
     d="m32.9 295.9c2.3-2.1 5.6-2.4 8.5-2.6l0.1 1.1c0.7 0 2.2 0 3 0.1-2 0.9-4 1.8-5.9 2.8-4.5 2-3.7 7.7-3.6 11.7 1.5 11.9 7.5 22.7 15.2 31.7 6.4 8.6 12.9 17.2 21.2 24 10.1 9.1 21 17.7 33.3 23.5 7.2 2.4 14.7 5.5 22.3 3.5 5.1-0.5 8.6-4.1 11.8-7.7 0.9-3.9 2.1-7.7 2.8-11.7 0.2-1 0.5-2 0.7-3.1 0.5 1.4 1.1 2.7 1.6 4 0.8-1.9 1.5-3.7 2.4-5.6 2 4.5 0.1 9.7-1.1 14.3-1.5 1.8-2.5 4-3.1 6.3-1.4 1.2-2.9 2.5-4.4 3.7l-0.3 0.3-3.3 2.1c-2 0.7-4 1.2-6.1 1.8-15.5 2.4-29.7-6.1-42.6-13.4 0.8 0.8 2.5 2.5 3.3 3.4-2-0.4-4-0.9-5.6-2.2-4.7-3.4-10.8-5.7-13.6-11.1 5.4 4.2 10.5 8.8 16.4 12.2l-0.5-2.1c-3.8-3.4-8.3-5.9-12-9.3-6.9-6.1-14.1-12.1-19-20.1-7-8.8-13.9-17.9-18.8-28.1-3-5.8-5.5-11.9-6.5-18.3-0.8-4 0.6-8.6 3.8-11.2z"
     stroke-width=".125"
     stroke="#f1f2f2" />
  <path
     id="path3480"
     fill="#e4e5e5"
     d="m44.5 294.5c7.9 2.8 14.6 7.8 21 13.1-1.9 0.1-3.7 0.2-5.6 0.3-3.3-1.9-6-4.7-9.2-6.6-3.6-2.6-7.9-3.4-12.1-4 1.9-1 3.9-1.9 5.9-2.8z"
     stroke-width=".125"
     stroke="#e4e5e5" />
  <path
     id="path3482"
     fill="#c4c5c5"
     d="m93.5 298.4l0.5 0.1c0.1 0.1 0.4 0.3 0.6 0.3 1.2-0.1 2.4-0.4 3.5-0.6 1.2 1.1 2.4 2.2 3.7 3.2-4.1-0.2-7.8 1.4-11.3 3.2-0.6 0.2-1.8 0.8-2.4 1.1-0.4-0.9-0.9-1.8-1.3-2.7 1.5 0.1 2.9 0.2 4.4 0.3-0.1-0.4-0.4-1.2-0.6-1.6 1-1.1 1.9-2.3 2.9-3.3z"
     stroke-width=".125"
     stroke="#c4c5c5" />
  <path
     id="path3484"
     fill="#c4c5c5"
     d="m213.3 299.3c0.5 0.5 0.5 0.5 0 0z"
     stroke-width=".125"
     stroke="#c4c5c5" />
  <path
     id="path3486"
     fill="#ffffff"
     d="m38.1 301.9c1.9-0.6 3.8-0.6 5.7 0 0.9 6 0.7 12.1 2.3 18 1.6 2.5 4.3 4 7 5.2-2.1 2-4.3 4-5.7 6.7-3.7-6.9-7.7-13.7-9.8-21.3-1-2.8-0.7-5.9 0.5-8.6z"
     stroke-width=".125"
     stroke="#ffffff" />
  <path
     id="path3488"
     fill="#f1f2f2"
     d="m90.5 304.6c3.5-1.8 7.2-3.4 11.3-3.2 0.6 4.7-2.8 9.2-6.6 11.4-1.8-1.9-3.3-4.1-4.8-6.2 0-0.5 0-1.5 0.1-2z"
     stroke-width=".125"
     stroke="#f1f2f2" />
  <path
     id="path3490"
     fill="#e4e5e5"
     d="m184.3 322.7c10.1-5.6 18.2-14 27.4-20.9 1.6 6.6 2.8 13.7 0.2 20.3-1.5 4-5.6 6.8-9.9 6.7-6.2 0.5-11.8-2.5-17.5-4.6 0-0.4-0.2-1.2-0.2-1.5z"
     stroke-width=".125"
     stroke="#e4e5e5" />
  <path
     id="path3492"
     fill="#e4e5e5"
     d="m46.1 303.2c1.5 1.1 3.7 1.7 4.1 3.7 1.3 4.6 2.4 9.3 3.3 14-7.3-2.7-7-11.3-7.4-17.7z"
     stroke-width=".125"
     stroke="#e4e5e5" />
  <path
     id="path3494"
     fill="#e4e5e5"
     d="m56.6 322.2c-2-5.9-2.8-12.3-5.5-18 3.2 5.2 9.1 7.6 13.2 12-2 2.6-4.8 4.4-7.7 6z"
     stroke-width=".125"
     stroke="#e4e5e5" />
  <path
     id="path3496"
     fill="#c4c5c5"
     d="m154.6 304.1c3 2.5 5.8 5.1 8.8 7.5 4.2 3.4 9.1 5.9 13.6 9 1.6-1.7 3.3-3.3 5.1-4.8 0.6 0.4 2 1.2 2.6 1.6-1.3 1.3-2.6 2.6-3.8 3.9 0.5 1.2 1.1 2.5 1.6 3.7-1.7-1-3.6-2-4.1-4.1l-3.6 2.1c-8-5.2-15.6-11-22.4-17.6 0.6-0.3 1.7-1 2.2-1.3z"
     stroke-width=".125"
     stroke="#c4c5c5" />
  <path
     id="path3498"
     fill="#f1f2f2"
     d="m59.9 307.9c1.9-0.1 3.7-0.2 5.6-0.3 1.9 2 4 3.8 6.2 5.5-0.9 0.1-1.8 0.2-2.8 0.3-0.7 1.2-1.5 2.4-2.2 3.6 0.1-4.3-4.4-6.2-6.8-9.1z"
     stroke-width=".125"
     stroke="#f1f2f2" />
  <path
     id="path3500"
     fill="#f1f2f2"
     d="m72.3 315.2c3-1.9 6-3.9 8.2-6.7 0.8 2.6-1.6 4.2-2.6 6.2-1.7 2.7-1.4 6-1.1 9.1-0.2-0.2-0.7-0.5-1-0.7-1.2-2.4-2.3-4.8-3.2-7.3l-0.3-0.6z"
     stroke-width=".125"
     stroke="#f1f2f2" />
  <path
     id="path3502"
     fill="#d8d9d9"
     d="m130.4 317.4c4.7-3.4 10-7.3 16.2-7.1-2.4 0.8-5.3 1.4-6.7 3.8-0.4 1.7-0.5 3.6-0.7 5.4 3.9 1.1 8 0.5 11.5-1.5-3.8 4.4-8.5 8.1-13.6 10.9-3.9 2.2-9.7 2.7-12.8-1.2-1-4.5 3.2-7.6 6.1-10.3z"
     stroke-width=".125"
     stroke="#d8d9d9" />
  <path
     id="path3504"
     fill="#f1f2f2"
     d="m78.5 321.7c-0.5-3.3 0.6-6.9 3.5-8.7 1.9 2 3.4 4.4 4.3 7.1-2.5 1-5.1 1.7-7.8 1.6z"
     stroke-width=".125"
     stroke="#f1f2f2" />
  <path
     id="path3506"
     fill="#d8d9d9"
     d="m68.8 317.1c1-0.3 2.8-1 3.8-1.3 0.9 2.5 2 4.9 3.2 7.3 0.3 0.2 0.8 0.5 1 0.7 0.6 0.3 1.7 1.1 2.3 1.5 1.4-0.1 2.8-0.1 4.1-0.1-1.1 0.5-2.2 1-3.4 1.6 1.4 4.5 3.4 8.9 5.7 13 1.6 3.1 3.8 5.7 6.4 8.1-2.7-1.1-5.5-2.1-8.2-3.1-2.7-2.4-5.7-4.9-6.8-8.6 2 1.5 4 2.8 6 4.3-2.6-4.1-5-8.4-6-13.2-3.2-3-6.6-6-8.1-10.2z"
     stroke-width=".125"
     stroke="#d8d9d9" />
  <path
     id="path3508"
     fill="#c4c5c5"
     d="m67.4 319.4c-0.1-0.9 1-1.5 1.4-2.3 1.5 4.2 4.9 7.2 8.1 10.2 1 4.8 3.4 9.1 6 13.2-2-1.5-4-2.8-6-4.3-3.5-5.4-7.5-10.6-9.5-16.8z"
     stroke-width=".125"
     stroke="#c4c5c5" />
  <path
     id="path3510"
     fill="#f1f2f2"
     d="m52.1 331.2c5.1-3.9 10-8.1 15.3-11.8 2 6.2 6 11.4 9.5 16.8 1.1 3.7 4.1 6.2 6.8 8.6 5.6 5.6 12.8 9.9 20.7 10.9-5.6-6-11.8-11.6-18.9-15.9-2.3-4.1-4.3-8.5-5.7-13 1.2-0.6 2.3-1.1 3.4-1.6 2.2-0.9 4.2-2.1 6.3-3.2 8.9 11.2 19.7 20.7 30.4 30 2.6 2.1 5.3 4.2 8.5 5.1-2.2 0.7-3.9 2.2-5.6 3.6-0.7 0.7-1.5 1.4-2.2 2.2-0.1 0.5-0.3 1.7-0.4 2.3-4.4 3.3-9 6.2-13.3 9.7-2.6 2.2-6.1 3.5-7.9 6.6-6.1-4-12.8-7.2-18.5-11.9-12.1-9.9-22.6-21.6-31.1-34.7 0.8-1.2 1.5-2.7 2.7-3.7z"
     stroke-width=".125"
     stroke="#f1f2f2" />
  <path
     id="path3512"
     fill="#e4e5e5"
     d="m154.9 344c5.6-4.6 11.4-8.8 17.2-13 1.5 1 3.7 1.8 3.7 3.9 0.6 6.9 1.1 15.3-4.4 20.4-6.8 5.7-16.6 3.3-24 0-0.2-1.5-0.4-2.9-0.4-4.3 2.2-2.9 5.2-4.8 7.9-7z"
     stroke-width=".125"
     stroke="#e4e5e5" />
  <path
     id="path3514"
     fill="#e4e5e5"
     d="m85.5 339.8c7.1 4.3 13.3 9.9 18.9 15.9-7.9-1-15.1-5.3-20.7-10.9 2.7 1 5.5 2 8.2 3.1-2.6-2.4-4.8-5-6.4-8.1z"
     stroke-width=".125"
     stroke="#e4e5e5" />
  <path
     id="path3516"
     fill="#c4c5c5"
     d="m135.6 350.6c4.7-2.9 9.9-4.8 14.5-7.8-1.8 2.6-4.2 4.5-6.6 6.5-0.7 0.1-2.2 0.3-2.9 0.4v3.2c-0.1-0.5-0.4-1.5-0.5-1.9-1.5-0.1-3-0.2-4.5-0.4z"
     stroke-width=".125"
     stroke="#c4c5c5" />
  <path
     id="path3518"
     fill="#e4e5e5"
     d="m143.2 353.5c0.6-0.9 1.3-1.8 1.9-2.6 0.2 1.4 0.4 2.9 0.6 4.3-0.9-0.5-1.7-1.1-2.5-1.7z"
     stroke-width=".125"
     stroke="#e4e5e5" />
  <path
     id="path3520"
     fill="#c4c5c5"
     d="m261.5 363.3c5.1-5 12.6-6.9 19.5-6.2 13.1 1.6 21.5 17.9 15.5 29.4-0.2 0.3-0.8 0.7-1.1 1 4.1-4.7 2.2-11.4-0.8-16.1-1.2-2.5-2.7-4.9-4.4-7.2-3.7-3.2-8.5-4.4-13.2-5 1.1 3.1 2.8 6.2 2 9.6-0.7 1.1-1.3 2.1-2 3.2-1-4.3-1.4-8.7-1.6-13.1-1.8 0.8-3.6 1.6-5.3 2.4-3.8 1.5-7.4 3.8-9.3 7.6-0.9 2.6-1.2 5.4-1.5 8.2-0.4-2.5-0.9-5.1-1.2-7.7l0.6-1.2c0.8-1.7 1.8-3.3 2.8-4.9z"
     stroke-width=".125"
     stroke="#c4c5c5" />
  <path
     id="path3522"
     fill="#d8d9d9"
     d="m270.1 361.3c1.7-0.8 3.5-1.6 5.3-2.4 0.2 4.4 0.6 8.8 1.6 13.1 0.7-1.1 1.3-2.1 2-3.2 0 0.5-0.1 1.5-0.2 2 0.6 0.4 1.8 1.2 2.4 1.7-0.5 1.2-0.8 2.4-1.2 3.7-1.2-1.1-2.5-2.1-3.8-3.2-0.5 0.7-1.1 1.4-1.7 2.2-1.1 0.2-2.2 0.3-3.2 0.6-0.5 0.3-1.3 1-1.7 1.3-0.8 0.7-1.5 1.4-2.3 2-1.3 0.6-2.6 1.1-4 1.5 0.3-3.2 2.4-5.7 5-7.4 0.7-0.2 1.4-0.3 2.1-0.5 1.4-0.3 2.8-0.7 4.1-1.3 1-3.5 0.4-7.2 0.2-10.8-1.2 0.1-3.5 0.5-4.6 0.7z"
     stroke-width=".125"
     stroke="#d8d9d9" />
  <path
     id="path3524"
     fill="#e4e5e5"
     d="m279 368.8c0.8-3.4-0.9-6.5-2-9.6 4.7 0.6 9.5 1.8 13.2 5-1 1.3-2 2.5-3.1 3.7-0.9 0.5-1.9 1.1-2.8 1.7-0.3 2.5 1.2 5.7-1.7 7.1-0.1-2.3-0.2-4.6-0.5-7-0.2 0.7-0.7 2.1-0.9 2.8-0.6-0.5-1.8-1.3-2.4-1.7 0.1-0.5 0.2-1.5 0.2-2z"
     stroke-width=".125"
     stroke="#e4e5e5" />
  <path
     id="path3526"
     fill="#f1f2f2"
     d="m260.8 368.9c1.9-3.8 5.5-6.1 9.3-7.6 1.4 0.3 2.8 0.8 4.2 1.2-1.3 3.4-2.9 6.7-3.9 10.2-0.7 0.2-1.4 0.3-2.1 0.5-1.4 0.1-2.8 0.2-4.3 0.2-0.1 0.5-0.4 1.4-0.5 1.8l-2.7 0.6c-0.1-2.3-0.1-4.6 0-6.9z"
     stroke-width=".125"
     stroke="#f1f2f2" />
  <path
     id="path3528"
     fill="#e4e5e5"
     d="m270.1 361.3c1.1-0.2 3.4-0.6 4.6-0.7 0.2 3.6 0.8 7.3-0.2 10.8-1.3 0.6-2.7 1-4.1 1.3 1-3.5 2.6-6.8 3.9-10.2-1.4-0.4-2.8-0.9-4.2-1.2z"
     stroke-width=".125"
     stroke="#e4e5e5" />
  <path
     id="path3530"
     fill="#e4e5e5"
     d="m111.5 376.5c6.3-5.8 14-9.6 20.7-14.7 2.9 1.3 8.2 1.9 7.5 6.2 0.1 3.2-0.5 6.3-1.2 9.4-1.4-1.5-2.8-3.2-3.6-5.1-0.9-1.3-1.1-3.9-3-3.7-1.3 0.3-2.4 0.9-3.6 1.4 0.7 0.6 1.3 1.1 2 1.6l1.5 4.5c0.9 2.5 2.1 4.8 3.3 7.1-5.3 5.7-13.6 1.8-20.1 4.1-1.9-0.5-3.7-1.2-5.6-1.8-0.6-2.8-1.2-5.6-1-8.5 0.8-0.1 2.3-0.4 3.1-0.5z"
     stroke-width=".125"
     stroke="#e4e5e5" />
  <path
     id="path3532"
     fill="#d8d9d9"
     d="m254 367.2c2.8-0.6 5.3-2.1 7.5-3.9-1 1.6-2 3.2-2.8 4.9-10.8 3.1-22.1 4-32.9 7.2-8.1 2-16.4 2.5-24.3 4.9-9.2 2.9-19.4 1.8-28 6.4-4.6 0.9-9.1 1.8-13.5 3-6.2 1.7-12.6 1.9-18.7 3.9 0.8-0.9 1.4-2.1 2.8-2.1 6-0.8 12-1.9 18-3.2 2.2-3.2 2.3-7.2 2.6-10.9h-2.8c0.2-0.3 0.5-1 0.6-1.3 0.6-0.1 1.9-0.5 2.5-0.7-0.1 2.9-0.2 5.7-0.3 8.6 9.2-1 18.1-3.5 27.2-4.9 20.7-4 41.4-7.7 62.1-11.9z"
     stroke-width=".125"
     stroke="#d8d9d9" />
  <path
     id="path3534"
     fill="#e4e5e5"
     d="m141.4 365.6c1.6 0.9 3.2 1.6 4.9 2-0.9 1.9-1.6 3.7-2.4 5.6-0.5-1.3-1.1-2.6-1.6-4-0.2 1.1-0.5 2.1-0.7 3.1 0-2.2 0-4.5-0.2-6.7z"
     stroke-width=".125"
     stroke="#e4e5e5" />
  <path
     id="path3536"
     fill="#f1f2f2"
     d="m287.1 367.9c1.1-1.2 2.1-2.4 3.1-3.7 1.7 2.3 3.2 4.7 4.4 7.2 0.7 5.7-0.3 11.8-3.7 16.5-4.1 4-10.7 5.9-16.1 3.6-3.6-1.6-7.3-3.5-9.7-6.6-1.9-2.2 0.9-4.2 2.2-5.8 0.8-0.6 1.5-1.3 2.3-2 3-0.1 6.1-0.9 9.1-0.2 1.5 1.5 2.6 3.2 3.8 4.8v-1.9c0-0.8 0.1-2.3 0.1-3.1 2.9-1.4 1.4-4.6 1.7-7.1 0.9-0.6 1.9-1.2 2.8-1.7z"
     stroke-width=".125"
     stroke="#f1f2f2" />
  <path
     id="path3538"
     fill="#d8d9d9"
     d="m128.3 370c1.2-0.5 2.3-1.1 3.6-1.4 1.9-0.2 2.1 2.4 3 3.7-0.8 0.1-2.3 0.3-3.1 0.4v3.4l-1.5-4.5c-0.7-0.5-1.3-1-2-1.6z"
     stroke-width=".125"
     stroke="#d8d9d9" />
  <path
     id="path3540"
     fill="#e4e5e5"
     d="m225.8 375.4c10.8-3.2 22.1-4.1 32.9-7.2l-0.6 1.2c-1.3 2.7-2.6 5.8-5.6 6.7 0.2-1 0.7-2.9 1-3.9-12.3 1.7-24.4 4.2-36.5 6.7-14.5 2.4-28.9 6.2-43.5 7.8 8.6-4.6 18.8-3.5 28-6.4 7.9-2.4 16.2-2.9 24.3-4.9z"
     stroke-width=".125"
     stroke="#e4e5e5" />
  <path
     id="path3542"
     fill="#d8d9d9"
     d="m259.3 377.1c0.3-2.8 0.6-5.6 1.5-8.2-0.1 2.3-0.1 4.6 0 6.9 0.9 5.2 4.3 10.1 2.8 15.6-8-3.6-17-4.2-25.6-2.5-0.6-0.3-2-0.9-2.6-1.2-0.2 1.5-0.3 3-0.4 4.5-0.4-1.7-0.8-3.3-1.2-4.9-19.2 3.8-38.5 7.5-57.7 11.3-6.8 1.2-13.1 4.6-20.1 5.1-6.7 0.4-13.2 2.6-20 2.7-5 0.1-10.1 2-15.1 0.6-4.2-1.1-7.5-4-10.8-6.8-3.2 1.9-6.4-0.1-9.3-1.6l0.6-3.6c0.9 0.8 1.8 1.5 2.6 2.2 4.1 0.8 8.1 2.1 11.6 4.4 5.5 4 12.4 3.3 18.4 1.4 27-5.3 54-10.6 81.1-15.6 6.4-1.2 12.8-2.7 19.4-3 0.1-1.1 0.2-2.2 0.4-3.3-16.6 3.5-33.3 6.4-49.9 9.7-3.1 0.7-6.4 1.1-9.6 1.4 8.2-2.6 16.7-3.6 25.1-5.4 11-2.2 22-3.9 32.9-6.6 6.3-1.6 12.7-2.6 19.1-4.1 3-0.9 4.3-4 5.6-6.7 0.3 2.6 0.8 5.2 1.2 7.7z"
     stroke-width=".125"
     stroke="#d8d9d9" />
  <path
     id="path3544"
     fill="#b9b9b9"
     d="m282.1 369.7c0.3 2.4 0.4 4.7 0.5 7 0 0.8-0.1 2.3-0.1 3.1-0.8-1.2-1.6-2.4-2.5-3.6 0.4-1.3 0.7-2.5 1.2-3.7 0.2-0.7 0.7-2.1 0.9-2.8z"
     stroke-width=".125"
     stroke="#b9b9b9" />
  <path
     id="path3546"
     fill="#e4e5e5"
     d="m294.6 371.4c3 4.7 4.9 11.4 0.8 16.1l-0.3 0.2c-2.3 1.5-4.5 3.2-6.6 4.8-7.8 4.7-17.2 2.5-24.9-1.1 1.5-5.5-1.9-10.4-2.8-15.6l2.7-0.6c0.1-0.4 0.4-1.3 0.5-1.8 1.5 0 2.9-0.1 4.3-0.2-2.6 1.7-4.7 4.2-5 7.4 1.4-0.4 2.7-0.9 4-1.5-1.3 1.6-4.1 3.6-2.2 5.8 2.4 3.1 6.1 5 9.7 6.6 5.4 2.3 12 0.4 16.1-3.6 3.4-4.7 4.4-10.8 3.7-16.5z"
     stroke-width=".125"
     stroke="#e4e5e5" />
  <path
     id="path3548"
     fill="#f1f2f2"
     d="m217 378.9c12.1-2.5 24.2-5 36.5-6.7-0.3 1-0.8 2.9-1 3.9-6.4 1.5-12.8 2.5-19.1 4.1-10.9 2.7-21.9 4.4-32.9 6.6-8.4 1.8-16.9 2.8-25.1 5.4-5.5 0.9-11 2-16.4 3.3-6.9 1.7-14 2.2-20.8 3.9-1.7-0.3-3.3-0.6-4.9-1 2.9-1.3 5.4-3.1 8-4.8 6.1-2 12.5-2.2 18.7-3.9 4.4-1.2 8.9-2.1 13.5-3 14.6-1.6 29-5.4 43.5-7.8z"
     stroke-width=".125"
     stroke="#f1f2f2" />
  <path
     id="path3550"
     fill="#e4e5e5"
     d="m274.5 375.2c0.6-0.8 1.2-1.5 1.7-2.2 1.3 1.1 2.6 2.1 3.8 3.2 0.9 1.2 1.7 2.4 2.5 3.6v1.9c-1.2-1.6-2.3-3.3-3.8-4.8-3-0.7-6.1 0.1-9.1 0.2 0.4-0.3 1.2-1 1.7-1.3 1-0.3 2.1-0.4 3.2-0.6z"
     stroke-width=".125"
     stroke="#e4e5e5" />
  <path
     id="path3552"
     fill="#b9b9b9"
     d="m245.2 377.9c4 1.7 8.2-1.1 12.4-0.7 0.3 0.9 0.9 2.6 1.2 3.5-5.4-1.7-11-1-16.5-1 0.9-0.7 1.9-1.3 2.9-1.8z"
     stroke-width=".125"
     stroke="#b9b9b9" />
  <path
     id="path3554"
     fill="#f1f2f2"
     d="m109 385.5c-2.7-0.9-5.6-5.1-1.7-6.7 0.8 2.2 1.4 4.4 1.7 6.7z"
     stroke-width=".125"
     stroke="#f1f2f2" />
  <path
     id="path3556"
     fill="#c4c5c5"
     d="m185 390.8c16.6-3.3 33.3-6.2 49.9-9.7-0.2 1.1-0.3 2.2-0.4 3.3-6.6 0.3-13 1.8-19.4 3-27.1 5-54.1 10.3-81.1 15.6-6 1.9-12.9 2.6-18.4-1.4 3.5-0.6 7-2 10.6-1.2 4 1.4 8.1 0.1 12-1 6.8-1.7 13.9-2.2 20.8-3.9 5.4-1.3 10.9-2.4 16.4-3.3 3.2-0.3 6.5-0.7 9.6-1.4z"
     stroke-width=".125"
     stroke="#c4c5c5" />
  <path
     id="path3558"
     fill="#f1f2f2"
     d="m236.2 382.6c6.7-1.7 13.9-1.8 20.4 0.4 2.6 0.9 3.6 3.5 4.5 5.8-4-0.8-8-2.2-12.1-2.1-3.7-0.1-7.4 1-11.2 1-1.3-1.3-1.1-3.5-1.6-5.1z"
     stroke-width=".125"
     stroke="#f1f2f2" />
  <path
     id="path3560"
     fill="#b9b9b9"
     d="m295.4 387.5c0.3-0.3 0.9-0.7 1.1-1 0.1 2.7 0.4 5.4-0.2 8-0.8 2.5-2.4 4.6-3.9 6.7-7.9 3.9-17.4 5.1-25.9 2.9-4.5-0.9-7.3-5-8.6-9.1 5.9 2 11.6 5.3 18.1 5.6 5.5 0.4 11.4-1.2 15.6-5 2.2-2 2.7-5.1 3.5-7.9l0.3-0.2z"
     stroke-width=".125"
     stroke="#b9b9b9" />
  <path
     id="path3562"
     fill="#c4c5c5"
     d="m235 392.2c0.1-1.5 0.2-3 0.4-4.5 0.6 0.3 2 0.9 2.6 1.2 8.6-1.7 17.6-1.1 25.6 2.5 7.7 3.6 17.1 5.8 24.9 1.1h4.1c-4.9 4.9-12.1 5.9-18.7 5.9-4.7-0.1-9.1-1.8-13.1-3.9-6.1-3.2-13.1-4.4-19.9-3.9-1.9-0.1-3.1 1.6-4.4 2.7l-1.2 0.8c-0.1-0.5-0.2-1.5-0.3-1.9z"
     stroke-width=".125"
     stroke="#c4c5c5" />
  <path
     id="path3564"
     fill="#d8d9d9"
     d="m288.5 392.5c2.1-1.6 4.3-3.3 6.6-4.8-0.8 2.8-1.3 5.9-3.5 7.9-4.2 3.8-10.1 5.4-15.6 5-6.5-0.3-12.2-3.6-18.1-5.6 1.3 4.1 4.1 8.2 8.6 9.1 8.5 2.2 18 1 25.9-2.9-4.6 7.2-14.2 8.3-22 7.2-7.1-1.2-11.8-7.6-14.3-13.9-6.5-1.2-13.1-2.5-19.6-1.2 1.3-1.1 2.5-2.8 4.4-2.7 6.8-0.5 13.8 0.7 19.9 3.9 4 2.1 8.4 3.8 13.1 3.9 6.6 0 13.8-1 18.7-5.9h-4.1z"
     stroke-width=".125"
     stroke="#d8d9d9" />
  <path
     id="path3566"
     fill="#d8d9d9"
     d="m126.2 400.4c2.3-0.8 4.7-1.4 7.1-2 1.6 0.4 3.2 0.7 4.9 1-3.9 1.1-8 2.4-12 1z"
     stroke-width=".125"
     stroke="#d8d9d9" />
  <path
     id="path3568"
     fill="#f1f2f2"
     d="m327.7 526.8c4.8-0.9 9.5-2.1 14.4-2.6-20.4 6.6-41.1 12.1-62.1 16.4-33.3 8.7-66.9 16.2-100.4 23.9-19.5 4.4-39 9.3-58.7 12.7l0.3-2c6.1-3.2 13.1-3.9 19.6-5.8 8.6-2.4 17.5-4.3 26.2-6.4 41.1-9.7 82.2-19.2 123.5-28.3 12.3-3 24.7-6 37.2-7.9z"
     stroke-width=".125"
     stroke="#f1f2f2" />
  <metadata
     id="metadata3570">
    <rdf:RDF>
      <cc:Work>
        <dc:format>image/svg+xml</dc:format>
        <dc:type
           rdf:resource="http://purl.org/dc/dcmitype/StillImage" />
        <cc:license
           rdf:resource="http://creativecommons.org/licenses/publicdomain/" />
        <dc:publisher>
          <cc:Agent
             rdf:about="http://openclipart.org/">
            <dc:title>Openclipart</dc:title>
          </cc:Agent>
        </dc:publisher>
        <dc:title>Soldering Iron Stand</dc:title>
        <dc:date>2008-02-27T14:43:00</dc:date>
        <dc:description>Vectorised image of cartoon style 3d render of a soldering iron stand</dc:description>
        <dc:source>https://openclipart.org/detail/15051/soldering-iron-stand-by-hexdoll</dc:source>
        <dc:creator>
          <cc:Agent>
            <dc:title>hexdoll</dc:title>
          </cc:Agent>
        </dc:creator>
        <dc:subject>
          <rdf:Bag>
            <rdf:li>cartoon</rdf:li>
            <rdf:li>electronics</rdf:li>
            <rdf:li>how i did it</rdf:li>
            <rdf:li>soldering iron stand</rdf:li>
          </rdf:Bag>
        </dc:subject>
      </cc:Work>
      <cc:License
         rdf:about="http://creativecommons.org/licenses/publicdomain/">
        <cc:permits
           rdf:resource="http://creativecommons.org/ns#Reproduction" />
        <cc:permits
           rdf:resource="http://creativecommons.org/ns#Distribution" />
        <cc:permits
           rdf:resource="http://creativecommons.org/ns#DerivativeWorks" />
      </cc:License>
    </rdf:RDF>
  </metadata>
</svg>
